SplineFontDB: 3.2
FontName: NewCMUncial08-Regular
FullName: NewCMUncial08-Regular
FamilyName: NewCMUncial08
Weight: Regular
Copyright: Copyright (c) 2021, Antonis Tsolomitis
Version: 4.1
ItalicAngle: 0
UnderlinePosition: -100
UnderlineWidth: 50
Ascent: 750
Descent: 250
InvalidEm: 0
LayerCount: 2
Layer: 0 0 "Back" 1
Layer: 1 0 "Fore" 0
UniqueID: 4016324
StyleMap: 0x0000
FSType: 0
OS2Version: 0
OS2_WeightWidthSlopeOnly: 0
OS2_UseTypoMetrics: 0
CreationTime: 1637078227
ModificationTime: 1637128187
OS2TypoAscent: 0
OS2TypoAOffset: 1
OS2TypoDescent: 0
OS2TypoDOffset: 1
OS2TypoLinegap: 90
OS2WinAscent: 0
OS2WinAOffset: 1
OS2WinDescent: 0
OS2WinDOffset: 1
HheadAscent: 0
HheadAOffset: 1
HheadDescent: 0
HheadDOffset: 1
Lookup: 1 0 0 "'salt' Stylistic Alternatives lookup 0" { "'salt' Stylistic Alternatives lookup 0-1"  } ['salt' ('DFLT' <'dflt' > 'grek' <'dflt' > 'latn' <'dflt' > ) ]
MarkAttachClasses: 1
DEI: 91125
LangName: 1033
Encoding: UnicodeFull
UnicodeInterp: none
NameList: AGL For New Fonts
DisplaySize: -72
AntiAlias: 1
FitToEm: 0
WinInfo: 0 13 5
BeginPrivate: 8
BlueValues 63 [-74.000 0.000 430.000 448.000 665.000 667.000 677.000 705.000]
BlueScale 12 0.0135135135
StdHW 8 [31.000]
StdVW 8 [89.000]
StemSnapH 15 [22.000 31.000]
StemSnapV 15 [28.000 89.000]
ForceBoldThreshold 2 .5
ForceBold 5 false
EndPrivate
BeginChars: 1114120 167

StartChar: exclam
Encoding: 33 33 0
Width: 295
Flags: MW
HStem: 0 106
LayerCount: 2
Fore
SplineSet
165 210 m 2
 164 193 161 185 147 185 c 0
 133 185 131 194 129 211 c 2
 88 662 l 2
 85 697 119 716 147 716 c 0
 176 716 210 697 207 662 c 2
 165 210 l 2
147 0 m 0
 115 0 88 25 88 56 c 0
 88 86 115 111 147 111 c 0
 180 111 207 86 207 56 c 0
 207 25 180 0 147 0 c 0
EndSplineSet
EndChar

StartChar: quotedbl
Encoding: 34 34 1
Width: 396
Flags: MW
HStem: 423 21G<131 164 131 131 232 266 232 232> 685 20G<136.5 158.5 237.5 260.5>
LayerCount: 2
Fore
SplineSet
266 423 m 1
 232 423 l 1
 209 668 l 2
 207 689 226 705 249 705 c 0
 272 705 291 689 289 668 c 2
 266 423 l 1
164 423 m 1
 131 423 l 1
 107 668 l 1
 107 671 l 2
 107 691 126 705 147 705 c 0
 170 705 190 689 188 668 c 2
 164 423 l 1
EndSplineSet
EndChar

StartChar: numbersign
Encoding: 35 35 2
Width: 883
Flags: MW
HStem: -194 21G<191.5 207.5 434.5 450> 133 40 327 40 674 20G<432 447.5 674.5 690.5>
VStem: 56 720
LayerCount: 2
Fore
SplineSet
788 131 m 2
 553 131 l 1
 467 -168 l 2
 464 -181 459 -194 441 -194 c 0
 428 -194 417 -184 417 -171 c 0
 417 -167 420 -155 421 -152 c 2
 503 131 l 1
 310 131 l 1
 225 -168 l 2
 221 -181 217 -194 198 -194 c 0
 185 -194 174 -184 174 -171 c 0
 174 -167 177 -155 178 -152 c 2
 260 131 l 1
 94 131 l 2
 78 131 56 132 56 154 c 0
 56 176 78 176 95 176 c 2
 274 176 l 1
 315 324 l 1
 95 324 l 2
 78 324 56 324 56 346 c 0
 56 368 78 369 94 369 c 2
 329 369 l 1
 415 668 l 2
 418 681 423 694 441 694 c 0
 454 694 465 684 465 671 c 0
 465 667 462 655 461 652 c 2
 379 369 l 1
 572 369 l 1
 657 668 l 2
 661 681 665 694 684 694 c 0
 697 694 708 684 708 671 c 0
 708 667 705 655 704 652 c 2
 622 369 l 1
 788 369 l 2
 804 369 826 368 826 346 c 0
 826 324 804 324 787 324 c 2
 608 324 l 1
 567 176 l 1
 787 176 l 2
 804 176 826 176 826 154 c 0
 826 132 804 131 788 131 c 2
365 324 m 1
 324 176 l 1
 517 176 l 1
 558 324 l 1
 365 324 l 1
EndSplineSet
EndChar

StartChar: dollar
Encoding: 36 36 3
Width: 530
Flags: MW
HStem: -56 21G<245 284 245 245> -10 31 137 92 311 92 479 92 673 31 730 20G<245 284 284 284>
VStem: 56 51 234 31 392 51
LayerCount: 2
Fore
SplineSet
284 -10 m 1
 284 -56 l 1
 245 -56 l 1
 245 -11 l 1
 112 -2 56 90 56 179 c 0
 56 231 102 233 108 233 c 0
 136 233 160 214 160 184 c 0
 160 156 138 136 108 136 c 0
 105 136 100 136 95 137 c 1
 110 79 157 32 245 27 c 1
 245 317 l 1
 192 329 156 338 115 377 c 0
 97 394 56 442 56 512 c 0
 56 603 127 693 245 704 c 1
 245 750 l 1
 284 750 l 1
 284 705 l 1
 403 698 473 625 473 528 c 0
 473 476 424 475 421 475 c 0
 397 475 369 491 369 524 c 0
 369 553 392 572 421 572 c 0
 427 572 431 572 433 571 c 1
 416 623 368 663 284 667 c 1
 284 405 l 1
 334 393 372 383 415 340 c 0
 424 331 473 280 473 196 c 0
 473 93 396 0 284 -10 c 1
245 667 m 1
 164 658 117 599 117 542 c 0
 117 523 120 440 245 414 c 1
 245 667 l 1
284 308 m 1
 284 27 l 1
 364 38 412 102 412 166 c 0
 412 190 405 282 284 308 c 1
EndSplineSet
EndChar

StartChar: percent
Encoding: 37 37 4
Width: 883
Flags: MW
HStem: -56 22 347 22 619 22 728 22
VStem: 56 62 179 25 308 25 499 62 751 25
LayerCount: 2
Fore
SplineSet
685 -56 m 0
 603 -56 526 26 526 147 c 0
 526 264 602 350 685 350 c 0
 763 350 826 261 826 146 c 0
 826 35 765 -56 685 -56 c 0
624 644 m 1
 604 634 556 614 491 614 c 0
 454 614 403 619 337 652 c 1
 356 603 356 560 356 547 c 0
 356 435 295 344 215 344 c 0
 133 344 56 427 56 548 c 0
 56 664 132 750 215 750 c 0
 250 750 274 735 294 717 c 0
 352 667 416 642 490 642 c 0
 566 642 636 669 689 735 c 0
 694 742 701 750 713 750 c 0
 727 750 738 740 738 727 c 0
 738 721 736 717 729 708 c 2
 192 -40 l 2
 186 -49 182 -56 169 -56 c 0
 156 -56 144 -46 144 -33 c 0
 144 -32 145 -25 154 -12 c 2
 624 644 l 1
686 322 m 0
 666 322 598 311 598 146 c 0
 598 -17 667 -28 686 -28 c 0
 738 -28 793 40 793 147 c 0
 793 252 739 322 686 322 c 0
216 722 m 0
 196 722 128 711 128 547 c 0
 128 383 197 372 216 372 c 0
 268 372 323 441 323 548 c 0
 323 652 269 722 216 722 c 0
EndSplineSet
EndChar

StartChar: ampersand
Encoding: 38 38 5
Width: 967
Flags: MW
HStem: -22 31 425 20G 674 31
VStem: 56 103 436 25 610 58
LayerCount: 2
Fore
SplineSet
906 348 m 1
 881 360 875 363 845 367 c 0
 713 385 607 295 590 184 c 0
 575 82 637 30 692 23 c 0
 733 17 770 34 823 100 c 1
 845 82 859 59 860 33 c 1
 778 -18 696 -9 662 -4 c 0
 637 -1 614 6 593 14 c 1
 550 -9 497 -22 428 -22 c 0
 229 -22 56 135 56 342 c 0
 56 546 228 705 428 705 c 0
 529 705 711 680 711 537 c 0
 711 501 695 472 668 452 c 1
 668 443 l 1
 847 418 l 2
 857 417 895 414 912 448 c 1
 945 440 l 1
 906 348 l 1
608 400 m 2
 586 402 569 405 556 406 c 0
 543 406 534 405 527 400 c 0
 512 392 505 370 491 317 c 1
 458 321 l 1
 495 466 l 1
 539 462 643 443 643 512 c 0
 643 578 585 668 440 668 c 0
 376 668 172 635 172 341 c 0
 172 48 377 15 441 15 c 0
 486 15 523 22 554 36 c 1
 508 69 485 120 494 180 c 0
 514 310 596 345 686 384 c 1
 687 389 l 1
 608 400 l 2
EndSplineSet
Substitution2: "'salt' Stylistic Alternatives lookup 0-1" ampersand.alt
EndChar

StartChar: quotesingle
Encoding: 39 39 6
Width: 295
Flags: MW
HStem: 423 21G<131 164 131 131> 685 20G<136 158.5>
VStem: 126 26
LayerCount: 2
Fore
SplineSet
164 423 m 1
 131 423 l 1
 107 668 l 2
 105 689 125 705 147 705 c 0
 170 705 190 689 188 668 c 2
 164 423 l 1
EndSplineSet
EndChar

StartChar: parenleft
Encoding: 40 40 7
Width: 412
Flags: MW
HStem: -250 21G<333.5 344> 730 20G<333.5 344>
VStem: 99 58
LayerCount: 2
Fore
SplineSet
340 -250 m 0
 327 -250 235 -184 172 -61 c 0
 113 51 102 172 102 250 c 0
 102 334 114 445 169 554 c 0
 231 681 327 750 340 750 c 0
 348 750 354 746 354 737 c 0
 354 733 352 730 339 718 c 0
 209 595 170 423 170 250 c 0
 170 98 203 -89 335 -213 c 0
 353 -230 354 -233 354 -237 c 0
 354 -246 348 -250 340 -250 c 0
EndSplineSet
EndChar

StartChar: parenright
Encoding: 41 41 8
Width: 412
Flags: MW
HStem: -250 21G<67 77.5> 730 20G<67 77.5>
VStem: 231 58
LayerCount: 2
Fore
SplineSet
242 -54 m 0
 180 -181 84 -250 71 -250 c 0
 63 -250 57 -245 57 -237 c 0
 57 -233 59 -230 72 -218 c 0
 203 -94 242 80 242 250 c 0
 242 457 182 615 78 712 c 0
 59 730 57 733 57 737 c 0
 57 745 63 750 71 750 c 0
 84 750 176 684 239 561 c 0
 298 449 310 328 310 250 c 0
 310 166 297 55 242 -54 c 0
EndSplineSet
EndChar

StartChar: asterisk
Encoding: 42 42 9
Width: 530
Flags: MW
HStem: 319 21G<256.5 273.5> 730 20G<255.5 272.5>
VStem: 65 369
LayerCount: 2
Fore
SplineSet
431 412 m 0
 423 412 419 414 413 418 c 2
 280 508 l 1
 296 347 l 2
 296 332 283 319 264 319 c 0
 249 319 233 330 233 347 c 2
 249 508 l 1
 105 412 l 1
 65 412 66 442 66 442 c 1
 66 456 71 463 92 473 c 2
 233 535 l 1
 90 597 l 2
 71 606 66 614 66 627 c 0
 66 641 78 657 98 657 c 0
 105 657 108 656 123 646 c 2
 248 561 l 1
 233 722 l 2
 233 737 246 750 265 750 c 0
 280 750 296 739 296 722 c 2
 280 561 l 1
 392 638 l 2
 398 642 417 655 426 657 c 0
 428 657 429 657 431 657 c 0
 450 657 463 641 463 627 c 0
 463 613 458 606 437 596 c 2
 296 534 l 1
 439 472 l 2
 458 463 463 455 463 442 c 0
 463 428 450 412 431 412 c 0
EndSplineSet
EndChar

StartChar: plus
Encoding: 43 43 10
Width: 825
Flags: MW
HStem: -83 21G<400.5 424> 230 40 563 20G<400.5 424>
VStem: 369 40
LayerCount: 2
Fore
SplineSet
729 227 m 2
 437 227 l 1
 437 -47 l 2
 437 -63 436 -83 412 -83 c 0
 389 -83 388 -63 388 -47 c 2
 388 227 l 1
 94 227 l 2
 78 227 56 228 56 250 c 0
 56 272 78 273 94 273 c 2
 388 273 l 1
 388 547 l 2
 388 563 389 583 412 583 c 0
 436 583 437 563 437 547 c 2
 437 273 l 1
 729 273 l 2
 746 273 767 272 767 250 c 0
 767 228 746 227 729 227 c 2
EndSplineSet
EndChar

StartChar: comma
Encoding: 44 44 11
Width: 295
Flags: MW
HStem: -193 21G<115.5 126.5> 0 106
VStem: 181 22
LayerCount: 2
Fore
SplineSet
119 -193 m 0
 112 -193 105 -188 105 -179 c 0
 105 -175 107 -173 109 -170 c 0
 162 -119 187 -62 187 9 c 1
 175 1 162 -4 147 -4 c 0
 107 -4 88 24 88 51 c 0
 88 78 108 106 147 106 c 0
 193 106 218 63 218 0 c 0
 218 -113 134 -193 119 -193 c 0
EndSplineSet
EndChar

StartChar: hyphen
Encoding: 45 45 12
Width: 353
Flags: MW
HStem: 187 58<8 296 8 296>
VStem: 11 265
LayerCount: 2
Fore
SplineSet
8 187 m 1
 8 245 l 1
 296 245 l 1
 296 187 l 1
 8 187 l 1
EndSplineSet
EndChar

StartChar: period
Encoding: 46 46 13
Width: 295
Flags: MW
HStem: 0 106<131 163.5>
VStem: 86 106
LayerCount: 2
Fore
SplineSet
147 0 m 0
 115 0 88 24 88 53 c 0
 88 82 115 106 147 106 c 0
 180 106 207 82 207 53 c 0
 207 24 180 0 147 0 c 0
EndSplineSet
EndChar

StartChar: zero
Encoding: 48 48 14
Width: 604
Flags: MW
HStem: -22 22 450 22
VStem: 74 84 412 84
LayerCount: 2
Fore
SplineSet
472 40 m 0
 430 -5 365 -22 302 -22 c 0
 239 -22 174 -5 132 40 c 0
 86 91 75 160 75 225 c 0
 75 290 86 359 132 410 c 0
 174 455 239 472 302 472 c 0
 365 472 430 455 472 410 c 0
 519 359 529 290 529 225 c 0
 529 160 519 91 472 40 c 0
400 390 m 1
 400 389 l 1
 379 423 343 444 302 444 c 0
 261 444 225 423 204 390 c 0
 174 341 171 282 171 225 c 0
 171 168 174 109 204 60 c 0
 225 27 261 6 302 6 c 0
 343 6 379 27 400 60 c 0
 430 109 434 168 434 225 c 0
 434 282 430 341 400 390 c 1
EndSplineSet
EndChar

StartChar: one
Encoding: 49 49 15
Width: 428
Flags: MW
HStem: 4 27 397 31 452 20G<234 249.5>
VStem: 167 75
LayerCount: 2
Fore
SplineSet
220 4 m 1
 41 0 l 1
 41 37 l 1
 95 37 l 2
 133 37 174 43 174 82 c 2
 174 407 l 1
 133 392 83 392 36 392 c 1
 36 429 l 1
 92 429 147 433 196 452 c 0
 208 458 227 472 241 472 c 0
 258 472 260 450 260 435 c 2
 260 81 l 2
 260 40 302 37 341 37 c 2
 392 37 l 1
 392 0 l 1
 220 4 l 1
EndSplineSet
EndChar

StartChar: two
Encoding: 50 50 16
Width: 587
Flags: MW
HStem: 0 73 441 31
VStem: 86 79 388 92
LayerCount: 2
Fore
SplineSet
485 15 m 2
 484 8 479 0 470 0 c 2
 76 0 l 1
 76 7 75 12 75 17 c 0
 75 36 92 43 106 52 c 2
 274 160 l 2
 330 197 408 259 408 332 c 0
 408 401 332 435 264 435 c 0
 216 435 170 421 141 386 c 1
 162 381 178 367 178 345 c 0
 178 323 161 303 134 303 c 0
 109 303 88 319 88 348 c 0
 88 440 206 472 277 472 c 0
 373 472 512 444 512 331 c 0
 512 253 447 208 380 172 c 2
 203 78 l 1
 409 78 l 2
 426 78 439 79 452 81 c 0
 463 83 466 97 470 111 c 0
 473 121 477 142 492 142 c 2
 513 142 l 1
 485 15 l 2
EndSplineSet
EndChar

StartChar: three
Encoding: 51 51 17
Width: 597
Flags: MW
HStem: -216 28 -1 21G 143 26 284 188
VStem: 186 92 370 92
LayerCount: 2
Fore
SplineSet
293 -216 m 0
 176 -216 75 -150 75 -57 c 0
 75 -12 111 3 138 3 c 0
 170 3 200 -18 200 -55 c 0
 200 -93 169 -115 133 -113 c 1
 171 -167 246 -182 289 -182 c 0
 334 -182 406 -155 406 -22 c 0
 406 75 367 140 283 140 c 2
 236 140 l 2
 216 140 208 141 208 154 c 0
 208 166 216 167 227 169 c 0
 234 169 259 171 268 172 c 0
 294 173 329 175 360 222 c 0
 387 264 389 321 389 333 c 0
 389 420 333 441 290 441 c 0
 254 441 189 429 155 386 c 1
 176 385 218 380 218 333 c 0
 218 303 196 280 161 280 c 0
 129 280 104 300 104 334 c 0
 104 412 187 472 295 472 c 0
 397 472 493 416 493 332 c 0
 493 256 435 188 353 158 c 1
 458 134 522 58 522 -22 c 0
 522 -125 423 -216 293 -216 c 0
EndSplineSet
EndChar

StartChar: four
Encoding: 52 52 18
Width: 548
Flags: MW
HStem: -191 28 0 31 465 20G<380.5 395.5>
VStem: 303 77
LayerCount: 2
Fore
SplineSet
406 -2 m 1
 406 -114 l 2
 406 -148 409 -157 483 -157 c 2
 509 -157 l 1
 509 -194 l 1
 462 -191 406 -191 361 -191 c 0
 317 -191 262 -191 215 -194 c 1
 215 -157 l 1
 241 -157 l 2
 315 -157 318 -148 318 -114 c 2
 318 -2 l 1
 36 -2 l 1
 36 33 l 1
 362 472 l 2
 371 484 375 485 386 485 c 0
 405 485 406 479 406 456 c 2
 406 35 l 1
 512 35 l 1
 512 -2 l 1
 406 -2 l 1
324 366 m 1
 75 35 l 1
 324 35 l 1
 324 366 l 1
EndSplineSet
EndChar

StartChar: five
Encoding: 53 53 19
Width: 580
Flags: MW
HStem: -216 28 -76 83 204 22 370 98
VStem: 125 31 384 89
LayerCount: 2
Fore
SplineSet
270 -216 m 0
 149 -216 75 -118 75 -32 c 0
 75 16 115 24 130 24 c 0
 167 24 187 -2 187 -28 c 0
 187 -53 167 -79 130 -79 c 0
 124 -79 120 -79 117 -78 c 1
 137 -134 195 -182 268 -182 c 0
 316 -182 355 -158 379 -119 c 0
 403 -81 404 -28 404 15 c 0
 404 65 402 103 385 139 c 0
 377 157 351 200 298 200 c 0
 214 200 175 148 164 132 c 0
 159 126 156 122 147 122 c 0
 130 122 129 130 129 151 c 2
 129 444 l 2
 129 463 131 471 143 471 c 0
 144 471 149 471 157 468 c 0
 207 448 255 440 297 440 c 0
 367 440 418 460 439 469 c 0
 446 472 449 472 449 472 c 2
 459 472 463 465 463 458 c 0
 463 443 387 352 255 352 c 0
 223 352 190 358 169 364 c 1
 169 181 l 1
 206 213 251 228 300 228 c 0
 417 228 505 127 505 8 c 0
 505 -120 395 -216 270 -216 c 0
EndSplineSet
EndChar

StartChar: six
Encoding: 54 54 20
Width: 597
Flags: MW
HStem: -22 28 404 23 510 91 641 25
VStem: 74 90 289 92
LayerCount: 2
Fore
SplineSet
300 -22 m 0
 199 -22 75 50 75 316 c 0
 75 536 219 666 357 666 c 0
 447 666 495 617 495 556 c 0
 495 515 461 505 443 505 c 0
 418 505 391 521 391 554 c 0
 391 596 427 601 447 601 c 1
 423 630 383 635 359 635 c 0
 307 635 177 601 177 352 c 2
 177 342 l 1
 200 386 239 429 306 429 c 0
 426 429 522 332 522 205 c 0
 522 73 420 -22 300 -22 c 0
417 278 m 0
 415 301 410 323 401 341 c 0
 385 371 360 395 323 399 c 0
 316 400 309 400 305 400 c 0
 213 400 179 304 179 227 c 0
 179 184 182 123 198 84 c 0
 204 69 235 12 300 12 c 0
 324 12 372 16 402 74 c 0
 421 111 420 166 420 206 c 0
 420 230 420 255 417 278 c 0
EndSplineSet
EndChar

StartChar: seven
Encoding: 55 55 21
Width: 533
Flags: MW
HStem: -213 21G<189.5 241> 376 77 465 20G<71 103 103 103>
VStem: 157 92
LayerCount: 2
Fore
SplineSet
487 414 m 2
 344 225 l 2
 277 138 267 -1 267 -105 c 2
 267 -155 l 2
 267 -166 267 -213 215 -213 c 0
 164 -213 163 -166 163 -155 c 0
 163 -54 194 87 294 219 c 2
 409 371 l 1
 196 371 l 2
 182 371 100 371 94 366 c 0
 81 355 72 293 68 275 c 1
 35 275 l 1
 71 485 l 1
 103 485 l 1
 106 472 107 467 123 462 c 0
 139 457 172 453 236 453 c 2
 497 453 l 1
 497 429 497 427 487 414 c 2
EndSplineSet
EndChar

StartChar: eight
Encoding: 56 56 22
Width: 597
Flags: MW
HStem: -22 28 641 25
VStem: 101 44 418 44
LayerCount: 2
Fore
SplineSet
298 -22 m 0
 186 -22 75 45 75 152 c 0
 75 250 163 306 225 335 c 1
 212 343 198 352 185 361 c 0
 170 371 157 380 151 386 c 0
 106 434 104 479 104 497 c 0
 104 592 191 666 299 666 c 0
 396 666 493 609 493 515 c 0
 493 450 442 398 368 361 c 1
 432 324 449 314 469 293 c 0
 510 251 522 206 522 169 c 0
 522 61 419 -22 298 -22 c 0
298 635 m 0
 223 635 157 594 157 536 c 0
 157 520 161 487 208 458 c 2
 338 380 l 1
 400 414 440 461 440 515 c 0
 440 585 374 635 298 635 c 0
384 240 m 2
 255 317 l 1
 167 270 135 208 135 152 c 0
 135 72 209 12 299 12 c 0
 385 12 462 63 462 134 c 0
 462 192 415 222 384 240 c 2
EndSplineSet
EndChar

StartChar: nine
Encoding: 57 57 23
Width: 597
Flags: MW
HStem: -216 28 -152 92 24 23 135 92 384 25 447 25
VStem: 74 90 182 92 399 90
LayerCount: 2
Fore
SplineSet
252 -216 m 0
 161 -216 102 -175 102 -106 c 0
 102 -65 136 -55 154 -55 c 0
 178 -55 206 -71 206 -104 c 0
 206 -121 197 -150 154 -152 c 1
 183 -180 234 -182 251 -182 c 0
 310 -182 420 -139 420 92 c 2
 420 110 l 1
 394 58 352 22 290 22 c 0
 170 22 75 121 75 246 c 0
 75 321 99 364 144 409 c 0
 190 454 243 472 302 472 c 0
 399 472 522 403 522 135 c 0
 522 -79 392 -216 252 -216 c 0
401 365 m 0
 383 409 349 441 302 441 c 0
 266 441 227 429 199 380 c 0
 178 344 177 299 177 245 c 0
 177 204 176 149 196 111 c 0
 212 81 237 56 274 52 c 0
 281 51 287 51 291 51 c 0
 382 51 418 144 418 226 c 0
 418 272 413 334 401 365 c 0
EndSplineSet
EndChar

StartChar: colon
Encoding: 58 58 24
Width: 295
Flags: MW
HStem: 0 106 325 106
VStem: 86 106
LayerCount: 2
Fore
SplineSet
147 321 m 0
 115 321 88 346 88 376 c 0
 88 406 115 431 147 431 c 0
 180 431 207 406 207 376 c 0
 207 346 180 321 147 321 c 0
147 0 m 0
 115 0 88 25 88 55 c 0
 88 85 115 110 147 110 c 0
 180 110 207 85 207 55 c 0
 207 25 180 0 147 0 c 0
EndSplineSet
EndChar

StartChar: semicolon
Encoding: 59 59 25
Width: 295
Flags: MW
HStem: -193 21G<115.5 126.5> 0 106 325 106
VStem: 86 106
LayerCount: 2
Fore
SplineSet
147 320 m 0
 115 320 88 345 88 376 c 0
 88 406 115 431 147 431 c 0
 180 431 207 406 207 376 c 0
 207 345 180 320 147 320 c 0
119 -193 m 0
 112 -193 105 -188 105 -179 c 0
 105 -175 106 -173 113 -164 c 0
 159 -115 180 -58 180 6 c 1
 172 2 163 0 156 -1 c 0
 155 -1 152 -2 147 -2 c 0
 107 -2 88 27 88 54 c 0
 88 81 108 109 147 109 c 0
 207 109 210 34 210 4 c 0
 210 -111 134 -193 119 -193 c 0
EndSplineSet
EndChar

StartChar: less
Encoding: 60 60 26
Width: 825
Flags: MW
VStem: 83 611
LayerCount: 2
Fore
SplineSet
714 -40 m 0
 711 -40 709 -39 694 -33 c 2
 107 226 l 2
 95 231 85 236 85 250 c 0
 85 264 95 269 107 274 c 2
 694 533 l 2
 709 539 711 540 714 540 c 0
 728 540 739 530 739 517 c 0
 739 504 730 498 717 493 c 2
 166 250 l 1
 717 7 l 2
 730 2 739 -4 739 -17 c 0
 739 -30 728 -40 714 -40 c 0
EndSplineSet
EndChar

StartChar: equal
Encoding: 61 61 27
Width: 825
Flags: MW
HStem: 133 40 327 40
VStem: 56 665
LayerCount: 2
Fore
SplineSet
728 322 m 2
 95 322 l 2
 78 322 56 323 56 345 c 0
 56 366 78 367 94 367 c 2
 729 367 l 2
 746 367 767 366 767 345 c 0
 767 323 746 322 728 322 c 2
729 133 m 2
 94 133 l 2
 78 133 56 134 56 155 c 0
 56 177 78 178 95 178 c 2
 728 178 l 2
 746 178 767 177 767 155 c 0
 767 134 746 133 729 133 c 2
EndSplineSet
EndChar

StartChar: greater
Encoding: 62 62 28
Width: 825
Flags: MW
VStem: 83 611
LayerCount: 2
Fore
SplineSet
717 226 m 2
 130 -33 l 2
 115 -39 113 -40 109 -40 c 0
 96 -40 85 -30 85 -17 c 0
 85 -7 91 0 107 7 c 2
 657 250 l 1
 107 493 l 2
 91 500 85 507 85 517 c 0
 85 530 96 540 109 540 c 0
 113 540 115 539 130 533 c 2
 717 274 l 2
 728 269 739 264 739 250 c 0
 739 236 728 231 717 226 c 2
EndSplineSet
EndChar

StartChar: at
Encoding: 64 64 29
Width: 846
Flags: MW
HStem: -201 31 -153 43 0 27 401 31 548 43
VStem: 43 44 711 44
LayerCount: 2
Fore
SplineSet
732 -2 m 1
 570 -2 l 1
 526 88 l 2
 509 122 448 231 433 263 c 1
 426 263 l 1
 383 199 183 -116 183 -116 c 2
 160 -153 222 -164 259 -164 c 1
 259 -201 l 1
 114 -201 l 2
 88 -201 74 -171 89 -149 c 0
 89 -148 365 183 385 319 c 0
 393 373 335 396 260 396 c 1
 260 433 l 1
 381 431 l 2
 408 431 416 424 431 398 c 2
 620 75 l 2
 643 35 659 31 671 31 c 0
 704 31 750 150 750 219 c 0
 750 403 593 542 424 542 c 0
 253 542 95 403 95 219 c 0
 95 35 253 -105 424 -105 c 0
 484 -105 535 -91 592 -57 c 0
 602 -50 622 -50 630 -63 c 0
 639 -77 629 -93 616 -100 c 0
 550 -138 492 -153 423 -153 c 0
 220 -153 42 12 42 219 c 0
 42 426 220 591 423 591 c 0
 626 591 803 426 803 219 c 0
 803 139 778 63 732 -2 c 1
EndSplineSet
EndChar

StartChar: A
Encoding: 65 65 30
Width: 753
Flags: MW
HStem: 0 32 649 34
LayerCount: 2
Fore
SplineSet
726 0 m 1
 706 4 559 3 545 0 c 0
 540 0 526 45 523 55 c 0
 513 83 501 116 491 137 c 1
 340 107 220 82 71 -20 c 1
 52 -20 30 -13 24 12 c 1
 79 96 152 198 212 289 c 0
 272 381 317 461 317 501 c 0
 317 524 310 543 294 564 c 0
 256 617 188 643 124 643 c 1
 124 683 l 1
 189 680 260 680 340 684 c 1
 637 62 l 2
 646 42 660 38 715 38 c 2
 736 38 l 1
 736 0 l 1
 726 0 l 1
362 412 m 1
 344 412 l 1
 330 391 156 133 156 128 c 0
 156 126 158 127 159 127 c 2
 162 128 l 2
 262 165 430 184 474 183 c 1
 447 240 385 365 362 412 c 1
EndSplineSet
EndChar

StartChar: B
Encoding: 66 66 31
Width: 750
Flags: MW
HStem: -22 50 344 22 668 34
VStem: 139 83 541 100
LayerCount: 2
Fore
SplineSet
346 -22 m 0
 181 -22 144 33 144 80 c 2
 144 603 l 2
 144 637 143 662 64 662 c 2
 22 662 l 1
 22 702 l 1
 98 699 167 699 238 703 c 1
 238 590 l 1
 302 660 367 693 469 693 c 0
 531 693 633 651 633 562 c 0
 633 490 526 394 444 358 c 1
 559 343 683 270 683 184 c 0
 683 83 588 -22 346 -22 c 0
328 341 m 1
 277 367 l 1
 465 396 524 500 524 562 c 0
 524 613 476 646 419 646 c 0
 372 646 300 599 238 517 c 1
 238 73 l 2
 238 49 262 34 352 34 c 0
 419 34 570 37 570 185 c 0
 570 288 426 341 328 341 c 1
EndSplineSet
EndChar

StartChar: C
Encoding: 67 67 32
Width: 765
Flags: MW
HStem: -22 31 674 31
VStem: 56 103 623 32
LayerCount: 2
Fore
SplineSet
677 496 m 0
 659 496 661 502 657 515 c 0
 625 616 554 668 440 668 c 0
 376 668 172 635 172 341 c 0
 172 48 377 15 441 15 c 0
 555 15 615 62 668 134 c 0
 675 143 679 150 692 143 c 0
 706 136 701 127 696 118 c 0
 647 33 570 -22 428 -22 c 0
 229 -22 56 135 56 342 c 0
 56 546 228 705 428 705 c 0
 530 705 624 700 697 590 c 1
 697 523 l 2
 697 502 697 496 677 496 c 0
EndSplineSet
EndChar

StartChar: D
Encoding: 68 68 33
Width: 706
Flags: MW
HStem: -15 29 649 34
VStem: 45 93 527 94
LayerCount: 2
Fore
SplineSet
352 -15 m 0
 179 -15 45 116 45 275 c 0
 45 345 69 407 110 457 c 1
 196 490 l 1
 196 457 l 1
 168 418 149 363 149 288 c 0
 149 79 271 20 352 20 c 0
 433 20 555 79 555 288 c 0
 555 417 480 494 372 554 c 0
 342 570 313 584 289 596 c 0
 272 605 182 643 65 643 c 1
 65 683 l 1
 128 680 290 684 290 684 c 1
 375 646 461 607 532 547 c 0
 606 483 661 397 661 275 c 0
 661 109 517 -15 352 -15 c 0
EndSplineSet
EndChar

StartChar: E
Encoding: 69 69 34
Width: 765
Flags: MW
HStem: -22 31 338 31 674 31
VStem: 56 103 493 25 623 32
LayerCount: 2
Fore
SplineSet
677 496 m 0
 659 496 661 502 657 515 c 0
 625 616 554 668 440 668 c 0
 379 668 186 637 173 372 c 1
 408 382 l 2
 508 386 519 401 519 488 c 1
 552 488 l 1
 552 219 l 1
 519 219 l 1
 519 305 508 321 408 325 c 2
 172 335 l 1
 174 47 378 15 441 15 c 0
 555 15 615 62 668 134 c 0
 675 143 679 150 692 143 c 0
 706 136 701 127 696 118 c 0
 647 33 570 -22 428 -22 c 0
 229 -22 56 135 56 342 c 0
 56 546 228 705 428 705 c 0
 530 705 624 700 697 590 c 1
 697 523 l 2
 697 502 697 496 677 496 c 0
EndSplineSet
EndChar

StartChar: F
Encoding: 70 70 35
Width: 692
Flags: MW
HStem: -100 31 649 31
VStem: 136 89 416 26
LayerCount: 2
Fore
SplineSet
617 451 m 1
 600 590 574 643 418 643 c 2
 290 643 l 2
 242 643 242 637 242 607 c 2
 242 256 l 1
 378 266 l 2
 436 271 438 317 438 375 c 1
 472 375 l 1
 472 106 l 1
 438 106 l 1
 438 165 436 213 378 219 c 2
 242 231 l 1
 242 -19 l 2
 242 -52 242 -63 339 -63 c 2
 377 -63 l 1
 377 -100 l 1
 336 -97 239 -97 196 -97 c 0
 155 -97 72 -97 32 -100 c 1
 32 -63 l 1
 60 -63 l 2
 138 -63 141 -54 141 -20 c 2
 141 600 l 2
 141 634 138 643 60 643 c 2
 32 643 l 1
 32 680 l 1
 620 680 l 1
 650 451 l 1
 617 451 l 1
EndSplineSet
EndChar

StartChar: G
Encoding: 71 71 36
Width: 832
Flags: MW
HStem: -22 31 329 52 674 31
VStem: 56 103 636 38
LayerCount: 2
Fore
SplineSet
428 -22 m 0
 229 -22 56 135 56 342 c 0
 56 546 228 705 428 705 c 0
 530 705 624 700 697 590 c 1
 697 523 l 2
 697 502 697 496 677 496 c 0
 659 496 661 502 657 515 c 0
 625 616 554 668 440 668 c 0
 376 668 172 635 172 341 c 0
 172 48 377 15 441 15 c 0
 555 15 671 108 671 191 c 0
 671 242 634 326 528 326 c 0
 466 326 428 278 402 228 c 1
 362 258 351 294 348 332 c 1
 385 368 431 384 481 384 c 0
 680 384 718 236 718 191 c 0
 718 72 591 -22 428 -22 c 0
EndSplineSet
EndChar

StartChar: H
Encoding: 72 72 37
Width: 740
Flags: MW
HStem: -85 22 0 32 538 23 651 32
VStem: 138 91 570 81
LayerCount: 2
Fore
SplineSet
374 -85 m 0
 347 -85 333 -78 333 -70 c 0
 333 -61 349 -57 373 -57 c 0
 480 -57 601 105 601 286 c 0
 601 503 489 533 427 533 c 0
 384 533 246 502 246 372 c 2
 246 60 l 1
 251 44 257 37 336 37 c 2
 358 37 l 1
 358 -1 l 1
 344 -1 l 2
 325 2 65 2 44 -1 c 2
 30 -1 l 1
 30 37 l 1
 52 37 l 2
 121 37 134 40 143 60 c 1
 143 623 l 1
 137 631 134 637 123 640 c 0
 112 644 92 645 52 645 c 2
 30 645 l 1
 30 683 l 1
 44 683 l 2
 63 680 323 680 344 683 c 2
 358 683 l 1
 358 645 l 1
 336 645 l 2
 262 645 254 640 246 623 c 1
 246 481 l 1
 277 524 363 562 436 562 c 0
 580 562 693 444 693 274 c 0
 693 97 586 -85 374 -85 c 0
EndSplineSet
EndChar

StartChar: I
Encoding: 73 73 38
Width: 383
Flags: MW
HStem: 0 31 652 31
VStem: 136 89
LayerCount: 2
Fore
SplineSet
191 3 m 0
 151 3 67 3 26 0 c 1
 26 37 l 1
 57 37 l 2
 140 37 141 47 141 80 c 2
 141 603 l 2
 141 636 140 646 57 646 c 2
 26 646 l 1
 26 683 l 1
 67 680 151 680 192 680 c 0
 232 680 316 680 356 683 c 1
 356 646 l 1
 325 646 l 2
 242 646 242 636 242 603 c 2
 242 80 l 2
 242 47 242 37 325 37 c 2
 356 37 l 1
 356 0 l 1
 316 3 232 3 191 3 c 0
EndSplineSet
EndChar

StartChar: J
Encoding: 74 74 39
Width: 545
Flags: MW
HStem: -22 22 652 31
VStem: 302 86
LayerCount: 2
Fore
SplineSet
414 609 m 2
 414 168 l 2
 414 134 415 132 413 124 c 0
 402 48 323 -22 213 -22 c 0
 192 -22 154 -14 154 3 c 0
 154 16 163 17 176 13 c 0
 187 11 200 6 211 6 c 0
 265 6 317 59 317 150 c 2
 317 602 l 2
 317 635 316 646 216 646 c 2
 175 646 l 1
 175 683 l 1
 219 680 312 679 356 680 c 2
 496 683 l 1
 496 646 l 1
 425 646 414 646 414 609 c 2
EndSplineSet
EndChar

StartChar: K
Encoding: 75 75 40
Width: 825
Flags: MW
HStem: 0 31 652 31
VStem: 136 89
LayerCount: 2
Fore
SplineSet
658 3 m 2
 618 4 544 3 503 0 c 1
 503 37 l 1
 527 37 566 36 566 63 c 0
 566 74 557 87 551 95 c 2
 361 358 l 1
 242 252 l 1
 242 80 l 2
 242 46 244 37 322 37 c 2
 351 37 l 1
 351 0 l 1
 310 3 231 3 191 3 c 0
 151 3 72 3 32 0 c 1
 32 37 l 1
 60 37 l 2
 138 37 141 46 141 80 c 2
 141 603 l 2
 141 637 138 646 60 646 c 2
 32 646 l 1
 32 683 l 1
 72 680 152 680 192 680 c 0
 232 680 310 680 351 683 c 1
 351 646 l 1
 322 646 l 2
 244 646 242 637 242 603 c 2
 242 294 l 1
 568 586 l 2
 578 595 586 603 586 617 c 0
 586 624 581 645 537 646 c 1
 537 683 l 1
 577 680 637 680 675 680 c 0
 704 680 738 680 768 683 c 1
 768 646 l 1
 711 646 658 624 617 588 c 2
 428 418 l 1
 671 83 l 2
 702 40 723 37 783 37 c 1
 783 0 l 1
 658 3 l 2
EndSplineSet
EndChar

StartChar: L
Encoding: 76 76 41
Width: 662
Flags: MW
HStem: 0 31 238 20G 652 31
VStem: 185 89 557 25
LayerCount: 2
Fore
SplineSet
590 0 m 1
 32 0 l 1
 32 37 l 1
 60 37 l 2
 138 37 141 46 141 80 c 2
 141 603 l 2
 141 637 138 646 60 646 c 2
 32 646 l 1
 32 683 l 1
 72 680 155 680 196 680 c 0
 239 680 336 680 377 683 c 1
 377 646 l 1
 339 646 l 2
 242 646 242 634 242 602 c 2
 242 73 l 2
 242 43 242 37 290 37 c 2
 377 37 l 2
 561 37 576 158 588 262 c 1
 620 262 l 1
 590 0 l 1
EndSplineSet
EndChar

StartChar: M
Encoding: 77 77 42
Width: 1236
Flags: MW
HStem: 0 31 654 38
VStem: 64 98 545 81 1008 96
LayerCount: 2
Fore
SplineSet
927 0 m 1
 927 35 l 1
 1017 105 1065 223 1065 355 c 0
 1065 489 1003 646 853 646 c 0
 760 646 667 561 667 474 c 2
 667 80 l 2
 667 46 669 37 747 37 c 2
 776 37 l 1
 776 0 l 1
 733 3 662 3 621 3 c 0
 580 3 508 3 465 0 c 1
 465 37 l 1
 494 37 l 2
 572 37 575 46 575 80 c 2
 575 397 l 2
 575 518 499 648 384 648 c 0
 247 648 175 495 175 364 c 0
 175 241 210 123 311 35 c 1
 311 0 l 1
 183 3 l 1
 56 0 l 1
 56 37 l 1
 98 37 133 43 157 51 c 0
 179 59 192 66 184 74 c 0
 134 125 65 240 65 339 c 0
 65 523 205 692 403 692 c 0
 497 692 570 647 622 579 c 1
 644 578 l 1
 704 646 783 696 889 696 c 0
 1052 696 1173 539 1173 379 c 0
 1173 249 1106 122 1050 65 c 0
 1045 60 1046 57 1052 53 c 0
 1076 39 1151 36 1177 37 c 1
 1180 0 l 1
 927 0 l 1
EndSplineSet
EndChar

StartChar: N
Encoding: 78 78 43
Width: 795
Flags: MW
HStem: 0 31 652 31
VStem: 136 28 585 28
LayerCount: 2
Fore
SplineSet
653 576 m 2
 653 29 l 2
 653 7 652 0 635 0 c 0
 626 0 623 2 614 14 c 2
 182 609 l 2
 180 612 178 614 177 615 c 1
 177 107 l 2
 177 81 177 37 286 37 c 1
 286 0 l 1
 159 3 l 1
 32 0 l 1
 32 37 l 1
 141 37 141 81 141 107 c 2
 141 625 l 2
 141 641 140 642 118 644 c 0
 103 646 82 646 66 646 c 2
 32 646 l 1
 32 683 l 1
 215 683 l 2
 236 683 239 682 249 669 c 2
 617 162 l 1
 617 576 l 2
 617 602 616 646 508 646 c 1
 508 683 l 1
 635 680 l 1
 762 683 l 1
 762 646 l 1
 653 646 653 602 653 576 c 2
EndSplineSet
EndChar

StartChar: O
Encoding: 79 79 44
Width: 825
Flags: MW
HStem: -22 26 680 25
VStem: 56 103 618 103
LayerCount: 2
Fore
SplineSet
411 -22 m 0
 221 -22 56 134 56 339 c 0
 56 545 220 705 411 705 c 0
 606 705 767 543 767 339 c 0
 767 137 606 -22 411 -22 c 0
411 674 m 0
 325 674 172 608 172 353 c 0
 172 95 313 10 412 10 c 0
 508 10 652 91 652 353 c 0
 652 605 502 674 411 674 c 0
EndSplineSet
EndChar

StartChar: P
Encoding: 80 80 45
Width: 796
Flags: MW
HStem: -101 31 86 42 649 44
VStem: 138 89 615 97
LayerCount: 2
Fore
SplineSet
445 85 m 0
 395 85 350 91 312 126 c 1
 315 165 326 200 366 230 c 1
 392 180 430 132 492 132 c 0
 598 132 649 267 649 381 c 0
 649 500 604 643 460 643 c 0
 320 643 244 450 244 316 c 2
 244 -21 l 2
 244 -55 246 -64 324 -64 c 2
 353 -64 l 1
 353 -101 l 1
 312 -98 233 -98 193 -98 c 0
 153 -98 74 -98 34 -101 c 1
 34 -64 l 1
 63 -64 l 2
 141 -64 143 -55 143 -21 c 2
 143 603 l 2
 143 637 141 646 63 646 c 2
 34 646 l 1
 34 683 l 1
 178 683 l 2
 233 683 241 657 241 610 c 2
 241 536 l 1
 250 536 l 1
 283 602 366 693 480 693 c 0
 641 693 758 555 758 404 c 0
 758 233 615 85 445 85 c 0
EndSplineSet
EndChar

StartChar: Q
Encoding: 81 81 46
Width: 796
Flags: MW
HStem: -101 31 86 42 652 31
VStem: 35 97 520 89
LayerCount: 2
Fore
SplineSet
599 -98 m 0
 559 -98 479 -98 439 -101 c 1
 439 -64 l 1
 467 -64 l 2
 545 -64 548 -55 548 -21 c 2
 548 316 l 2
 548 450 472 643 332 643 c 0
 188 643 143 500 143 381 c 0
 143 267 194 132 300 132 c 0
 362 132 400 180 426 230 c 1
 466 200 477 165 480 126 c 1
 442 91 397 85 347 85 c 0
 177 85 34 233 34 404 c 0
 34 555 150 693 312 693 c 0
 426 693 509 602 542 536 c 1
 551 536 l 1
 551 610 l 2
 551 657 559 683 614 683 c 2
 758 683 l 1
 758 646 l 1
 729 646 l 2
 651 646 649 637 649 603 c 2
 649 -21 l 2
 649 -55 651 -64 729 -64 c 2
 758 -64 l 1
 758 -101 l 1
 717 -98 639 -98 599 -98 c 0
EndSplineSet
EndChar

StartChar: R
Encoding: 82 82 47
Width: 766
Flags: MW
HStem: 0 21<721 737.5> 331 25 649 44
VStem: 138 89 470 97
LayerCount: 2
Fore
SplineSet
729 0 m 0
 713 0 692 -2 668 -1 c 0
 644 1 618 6 593 20 c 0
 547 47 497 101 474 164 c 0
 463 193 458 217 450 239 c 0
 443 260 433 278 413 295 c 0
 377 328 331 328 311 328 c 1
 311 359 l 1
 418 359 495 433 495 516 c 0
 495 593 456 643 396 643 c 0
 288 643 244 519 244 455 c 2
 244 79 l 2
 244 45 246 36 324 36 c 2
 353 36 l 1
 353 -1 l 1
 312 2 233 2 193 2 c 0
 153 2 74 2 34 -1 c 1
 34 36 l 1
 63 36 l 2
 141 36 143 45 143 79 c 2
 143 603 l 2
 143 637 141 646 63 646 c 2
 34 646 l 1
 34 683 l 1
 178 683 l 2
 233 683 241 657 241 610 c 2
 241 576 l 1
 246 576 l 1
 279 644 335 693 407 693 c 0
 493 693 604 631 604 509 c 0
 604 356 490 338 436 336 c 1
 512 310 558 272 583 199 c 0
 587 189 590 178 594 166 c 0
 601 144 608 122 616 108 c 0
 632 78 679 27 729 27 c 0
 743 27 750 22 750 13 c 0
 750 5 746 0 729 0 c 0
EndSplineSet
EndChar

StartChar: S
Encoding: 83 83 48
Width: 589
Flags: MW
HStem: -22 31 186 31 388 31 480 31 677 28
VStem: 56 64 187 64 435 64
LayerCount: 2
Fore
SplineSet
320 -22 m 0
 228 -22 160 12 126 46 c 1
 93 -4 89 -8 89 -8 c 2
 85 -15 82 -22 71 -22 c 0
 58 -22 56 -15 56 5 c 2
 56 203 l 2
 56 224 57 231 73 231 c 0
 82 231 89 228 89 218 c 0
 90 195 92 172 99 149 c 0
 128 57 220 15 319 15 c 0
 406 15 458 84 458 154 c 0
 458 186 447 217 426 243 c 0
 396 278 366 286 337 292 c 0
 263 310 209 321 197 325 c 0
 113 353 56 426 56 510 c 0
 56 616 147 705 266 705 c 0
 322 705 369 691 411 658 c 0
 420 651 428 644 435 637 c 1
 470 691 l 2
 479 704 480 705 489 705 c 0
 502 705 503 698 503 678 c 2
 503 479 l 2
 503 457 502 452 487 452 c 0
 474 452 472 457 471 467 c 0
 465 508 454 549 432 586 c 0
 403 631 354 671 267 671 c 0
 186 671 130 612 130 544 c 0
 130 488 171 436 235 421 c 2
 371 391 l 2
 461 370 532 288 532 187 c 0
 532 77 446 -22 320 -22 c 0
EndSplineSet
EndChar

StartChar: T
Encoding: 84 84 49
Width: 765
Flags: MW
HStem: -12 23 622 55
VStem: 36 25 120 100 682 25
LayerCount: 2
Fore
SplineSet
717 600 m 1
 677 614 666 617 619 617 c 0
 409 617 236 438 236 262 c 0
 236 147 313 17 432 17 c 0
 515 17 599 50 662 163 c 1
 700 140 713 125 721 87 c 1
 608 -8 480 -12 426 -12 c 0
 248 -12 124 83 124 236 c 0
 124 376 190 466 302 545 c 0
 334 567 367 587 400 607 c 1
 400 617 l 1
 229 617 l 2
 92 617 83 610 68 448 c 1
 35 448 l 1
 55 677 l 1
 611 677 l 2
 614 677 622 676 632 676 c 0
 678 674 708 691 721 737 c 1
 753 731 l 1
 717 600 l 1
EndSplineSet
EndChar

StartChar: U
Encoding: 85 85 50
Width: 851
Flags: MW
HStem: -22 31 652 31
VStem: 136 89 582 79
LayerCount: 2
Fore
SplineSet
615 3 m 1
 615 92 l 1
 573 25 498 -22 411 -22 c 0
 265 -22 141 87 141 229 c 2
 141 603 l 2
 141 637 138 646 60 646 c 2
 32 646 l 1
 32 683 l 1
 72 680 152 680 192 680 c 0
 232 680 310 680 351 683 c 1
 351 646 l 1
 322 646 l 2
 244 646 242 637 242 603 c 2
 242 225 l 2
 242 39 365 15 413 15 c 0
 512 15 614 93 614 232 c 2
 614 606 l 2
 614 631 613 646 505 646 c 1
 505 683 l 1
 505 683 602 680 658 680 c 0
 709 680 813 683 813 683 c 1
 813 646 l 1
 704 646 704 633 704 602 c 2
 704 111 l 2
 704 60 704 37 813 37 c 1
 813 0 l 1
 615 3 l 1
EndSplineSet
EndChar

StartChar: V
Encoding: 86 86 51
Width: 795
Flags: MW
HStem: -22 21G<388.5 425> 652 31
VStem: 19 711
LayerCount: 2
Fore
SplineSet
661 582 m 2
 425 -1 l 2
 419 -16 416 -22 396 -22 c 0
 381 -22 375 -18 367 2 c 2
 121 611 l 2
 107 646 89 646 17 646 c 1
 17 683 l 1
 155 680 l 2
 195 679 268 680 310 683 c 1
 310 646 l 1
 281 646 223 648 223 621 c 0
 223 620 224 616 229 604 c 2
 428 110 l 1
 619 581 l 2
 622 587 624 593 624 600 c 0
 624 620 604 645 547 646 c 1
 547 683 l 1
 671 680 l 2
 699 679 741 681 777 683 c 1
 777 646 l 1
 703 645 676 617 661 582 c 2
EndSplineSet
EndChar

StartChar: W
Encoding: 87 87 52
Width: 1243
Flags: MW
HStem: -14 26
VStem: 115 80 564 79 982 79
LayerCount: 2
Fore
SplineSet
1044 -14 m 1
 1044 81 l 1
 1006 24 895 -14 821 -14 c 0
 774 -14 681 -8 606 82 c 1
 530 15 446 -14 357 -14 c 0
 220 -14 119 40 119 177 c 2
 119 598 l 2
 119 625 95 641 37 641 c 1
 37 678 l 1
 37 678 116 675 164 675 c 0
 213 675 293 678 293 678 c 1
 293 641 l 1
 218 641 210 639 210 598 c 2
 210 125 l 2
 210 61 298 18 365 18 c 0
 469 18 595 89 595 189 c 2
 595 598 l 2
 595 639 586 641 512 641 c 1
 512 678 l 1
 512 678 590 675 639 675 c 0
 688 675 767 678 767 678 c 1
 767 641 l 1
 693 641 685 639 685 598 c 2
 685 121 l 2
 685 67 753 19 818 19 c 0
 886 19 1038 79 1038 179 c 2
 1038 598 l 2
 1038 639 1029 641 955 641 c 1
 955 678 l 1
 955 678 1034 675 1082 675 c 0
 1131 675 1211 678 1211 678 c 1
 1211 641 l 1
 1136 641 1128 639 1128 598 c 2
 1128 86 l 2
 1128 40 1134 34 1211 34 c 1
 1211 -3 l 1
 1044 -14 l 1
EndSplineSet
EndChar

StartChar: X
Encoding: 88 88 53
Width: 795
Flags: MW
HStem: 0 31 652 31
VStem: 24 702
LayerCount: 2
Fore
SplineSet
632 3 m 2
 592 4 514 3 474 0 c 1
 474 37 l 1
 523 38 543 55 543 63 c 0
 543 65 539 71 538 73 c 2
 373 306 l 1
 225 101 l 2
 217 91 215 87 215 79 c 0
 215 63 231 38 282 37 c 1
 282 0 l 1
 196 6 109 2 22 0 c 1
 22 37 l 1
 80 37 135 48 170 92 c 0
 173 95 175 98 177 101 c 2
 349 339 l 1
 155 613 l 2
 136 640 117 646 59 646 c 2
 36 646 l 1
 36 683 l 1
 177 680 l 2
 217 679 294 680 335 683 c 1
 335 646 l 1
 286 645 266 628 266 620 c 0
 266 616 271 609 273 606 c 2
 407 419 l 1
 525 583 l 2
 531 590 534 594 534 604 c 0
 534 624 513 645 469 646 c 1
 469 683 l 1
 557 677 639 681 728 683 c 1
 728 646 l 1
 632 645 597 614 574 583 c 2
 430 386 l 1
 652 71 l 2
 673 41 695 37 749 37 c 2
 773 37 l 1
 773 0 l 1
 632 3 l 2
EndSplineSet
EndChar

StartChar: Y
Encoding: 89 89 54
Width: 795
Flags: MW
HStem: 0 31 652 31
VStem: 331 86
LayerCount: 2
Fore
SplineSet
649 583 m 2
 445 273 l 1
 445 82 l 2
 445 46 446 37 527 37 c 2
 554 37 l 1
 554 0 l 1
 513 3 438 3 396 3 c 0
 355 3 280 3 238 0 c 1
 238 37 l 1
 267 37 l 2
 345 37 348 46 348 80 c 2
 348 273 l 1
 126 611 l 2
 109 636 102 646 31 646 c 2
 8 646 l 1
 8 683 l 1
 150 680 l 2
 191 679 268 680 310 683 c 1
 310 646 l 1
 257 646 235 642 235 625 c 0
 235 620 235 620 242 609 c 2
 431 321 l 1
 604 582 l 2
 608 588 614 601 614 611 c 0
 614 628 599 646 553 646 c 1
 553 683 l 1
 678 680 l 2
 707 679 749 681 785 683 c 1
 785 646 l 1
 749 646 688 642 649 583 c 2
EndSplineSet
EndChar

StartChar: Z
Encoding: 90 90 55
Width: 648
Flags: MW
HStem: 0 34 652 31
VStem: 56 504
LayerCount: 2
Fore
SplineSet
579 0 m 1
 87 0 l 2
 62 0 56 1 56 20 c 0
 56 28 56 30 64 41 c 2
 473 646 l 1
 313 646 l 2
 141 646 110 568 103 454 c 1
 70 454 l 1
 82 683 l 1
 560 683 l 2
 584 683 590 682 590 664 c 0
 590 656 590 655 583 644 c 2
 174 40 l 1
 342 40 l 2
 536 40 555 130 564 271 c 1
 597 271 l 1
 579 0 l 1
EndSplineSet
EndChar

StartChar: a
Encoding: 97 97 56
Width: 558
Flags: MW
HStem: 0 31 401 31
LayerCount: 2
Fore
SplineSet
389 0 m 1
 346 87 l 1
 340 87 l 1
 231 65 144 50 52 -13 c 1
 40 -13 24 -8 20 9 c 1
 92 118 183 183 204 319 c 0
 211 372 154 395 78 395 c 1
 78 432 l 1
 199 430 l 2
 226 430 234 423 250 397 c 2
 438 76 l 2
 461 37 507 36 546 36 c 1
 546 0 l 1
 389 0 l 1
251 263 m 1
 244 263 l 1
 199 196 142 98 142 95 c 0
 142 93 143 95 144 95 c 0
 207 119 295 126 324 126 c 1
 306 163 265 234 251 263 c 1
EndSplineSet
EndChar

StartChar: b
Encoding: 98 98 57
Width: 480
Flags: MW
HStem: -14 32 417 26
VStem: 72 70 346 77
LayerCount: 2
Fore
SplineSet
222 -14 m 0
 116 -14 73 21 73 52 c 2
 73 375 l 2
 73 396 73 412 22 412 c 2
 5 412 l 1
 4 449 l 1
 54 447 107 448 154 450 c 1
 154 380 l 1
 194 423 235 444 300 444 c 0
 339 444 423 417 423 359 c 0
 423 314 379 256 295 230 c 1
 376 222 452 172 452 118 c 0
 452 53 377 -14 222 -14 c 0
209 217 m 1
 174 235 l 1
 297 254 334 320 334 359 c 0
 334 391 304 411 268 411 c 0
 238 411 192 392 154 339 c 1
 154 47 l 2
 154 34 168 24 225 24 c 0
 269 24 364 26 364 119 c 0
 364 184 272 217 209 217 c 1
EndSplineSet
EndChar

StartChar: c
Encoding: 99 99 58
Width: 484
Flags: MW
HStem: -14 25 427 24
VStem: 36 81 395 24
LayerCount: 2
Fore
SplineSet
275 -14 m 0
 147 -14 35 87 35 219 c 0
 35 350 146 451 275 451 c 0
 339 451 399 448 447 377 c 1
 447 334 l 2
 447 318 446 313 434 313 c 0
 422 313 419 320 416 329 c 0
 395 392 348 421 275 421 c 0
 245 421 127 405 127 218 c 0
 127 32 252 17 282 17 c 0
 355 17 388 42 422 87 c 0
 432 100 450 94 450 85 c 0
 450 82 448 79 447 76 c 0
 416 21 366 -14 275 -14 c 0
EndSplineSet
EndChar

StartChar: d
Encoding: 100 100 59
Width: 517
Flags: MW
HStem: -10 19 405 32
VStem: 29 80 337 70
LayerCount: 2
Fore
SplineSet
226 -10 m 0
 115 -10 28 75 28 176 c 0
 28 221 44 261 70 293 c 1
 139 320 l 1
 139 293 l 1
 126 264 119 222 119 185 c 0
 119 70 176 15 226 15 c 0
 276 15 354 52 354 185 c 0
 354 306 237 355 184 375 c 0
 174 379 116 400 40 400 c 1
 40 437 l 1
 83 436 185 438 185 438 c 1
 280 404 435 334 435 176 c 0
 435 70 332 -10 226 -10 c 0
EndSplineSet
EndChar

StartChar: e
Encoding: 101 101 60
Width: 484
Flags: MW
HStem: -14 25 427 24
VStem: 102 15 306 26 395 24
LayerCount: 2
Fore
SplineSet
275 -14 m 0
 147 -14 35 87 35 219 c 0
 35 350 146 451 275 451 c 0
 339 451 399 448 447 377 c 1
 447 334 l 2
 447 318 446 313 434 313 c 0
 422 313 419 320 416 329 c 0
 395 392 348 421 275 421 c 0
 245 421 127 405 127 218 c 0
 127 32 252 17 282 17 c 0
 355 17 388 42 422 87 c 0
 432 100 450 94 450 85 c 0
 450 82 448 79 447 76 c 0
 416 21 366 -14 275 -14 c 0
321 139 m 1
 321 195 321 200 261 204 c 2
 105 215 l 1
 105 239 l 1
 261 249 l 2
 321 253 321 257 321 313 c 1
 355 313 l 1
 355 139 l 1
 321 139 l 1
EndSplineSet
EndChar

StartChar: f
Encoding: 102 102 61
Width: 471
Flags: MW
HStem: -100 23 199 27 408 22
VStem: 103 70 306 26 393 25
LayerCount: 2
Fore
SplineSet
414 281 m 1
 405 389 390 402 280 402 c 2
 228 402 l 2
 188 402 187 395 187 348 c 2
 187 229 l 1
 260 234 l 2
 320 239 321 243 321 298 c 1
 355 298 l 1
 355 124 l 1
 321 124 l 1
 321 180 320 185 260 190 c 2
 187 195 l 1
 187 -27 l 2
 187 -64 198 -71 276 -71 c 2
 289 -71 l 1
 289 -100 l 1
 239 -98 194 -97 147 -97 c 0
 136 -97 99 -97 23 -100 c 1
 23 -71 l 1
 35 -71 l 2
 97 -71 106 -65 106 -29 c 2
 106 360 l 2
 106 396 96 402 34 402 c 2
 23 402 l 1
 23 430 l 1
 434 430 l 1
 447 281 l 1
 414 281 l 1
EndSplineSet
EndChar

StartChar: g
Encoding: 103 103 62
Width: 484
Flags: MW
HStem: -14 25 220 35 427 24
VStem: 36 81 395 24
LayerCount: 2
Fore
SplineSet
275 -14 m 0
 147 -14 35 87 35 219 c 0
 35 350 146 451 275 451 c 0
 339 451 399 448 447 377 c 1
 447 334 l 2
 447 318 446 313 434 313 c 0
 422 313 419 320 416 329 c 0
 395 392 348 421 275 421 c 0
 245 421 127 405 127 218 c 0
 127 32 252 17 282 17 c 0
 358 17 430 74 430 128 c 0
 430 162 410 217 341 217 c 0
 301 217 275 185 258 151 c 1
 229 172 222 196 219 222 c 1
 245 246 276 257 310 257 c 0
 442 257 469 158 469 128 c 0
 469 49 384 -14 275 -14 c 0
EndSplineSet
EndChar

StartChar: h
Encoding: 104 104 63
Width: 591
Flags: MW
HStem: -155 22 0 23 358 23 437 22
VStem: 112 67 454 70
LayerCount: 2
Fore
SplineSet
462 -98 m 0
 442 -117 386 -155 321 -155 c 0
 294 -155 280 -148 280 -140 c 0
 280 -131 296 -127 320 -127 c 0
 427 -127 478 24 478 136 c 0
 478 303 393 353 332 353 c 0
 290 353 193 322 193 193 c 2
 193 95 l 2
 193 79 193 67 194 58 c 0
 195 48 197 42 201 38 c 0
 210 29 227 27 267 27 c 2
 276 27 l 1
 276 -2 l 1
 232 0 192 1 152 1 c 0
 128 1 93 1 33 -2 c 1
 33 27 l 1
 45 27 l 2
 107 27 116 34 116 70 c 2
 116 389 l 2
 116 425 106 431 43 431 c 2
 33 431 l 1
 33 459 l 1
 76 457 117 457 158 457 c 0
 180 457 215 456 276 459 c 1
 276 431 l 1
 267 431 l 2
 204 431 194 426 193 386 c 2
 190 298 l 1
 216 341 265 382 340 382 c 0
 485 382 559 256 559 136 c 0
 559 -1 482 -80 462 -98 c 0
EndSplineSet
EndChar

StartChar: i
Encoding: 105 105 64
Width: 303
Flags: MW
HStem: 0 23 410 22
VStem: 111 70
LayerCount: 2
Fore
SplineSet
152 3 m 0
 105 3 70 1 32 0 c 1
 32 29 l 1
 43 29 l 2
 106 29 114 35 114 71 c 2
 114 362 l 2
 114 400 102 404 40 404 c 2
 32 404 l 1
 32 432 l 1
 73 430 111 430 151 430 c 0
 192 430 233 430 278 432 c 1
 278 404 l 1
 267 404 l 2
 196 404 195 396 195 343 c 2
 195 91 l 2
 195 38 196 29 267 29 c 2
 278 29 l 1
 278 0 l 1
 233 2 193 3 152 3 c 0
EndSplineSet
EndChar

StartChar: j
Encoding: 106 106 65
Width: 318
Flags: MW
HStem: -101 22 410 22
VStem: 115 70
LayerCount: 2
Fore
SplineSet
271 404 m 2
 200 404 199 394 199 341 c 2
 199 90 l 2
 199 56 199 54 198 46 c 0
 188 -29 125 -101 15 -101 c 0
 -7 -101 -45 -93 -45 -76 c 0
 -45 -63 -35 -62 -22 -66 c 0
 -11 -68 1 -73 13 -73 c 0
 66 -73 119 -20 119 70 c 2
 119 362 l 2
 119 399 106 404 45 404 c 2
 36 404 l 1
 36 432 l 1
 77 430 116 430 155 430 c 0
 196 430 237 430 282 432 c 1
 282 404 l 1
 271 404 l 2
EndSplineSet
EndChar

StartChar: k
Encoding: 107 107 66
Width: 583
Flags: MW
HStem: -12 19 400 31 652 31
VStem: 106 66
LayerCount: 2
Fore
SplineSet
554 -12 m 0
 536 -17 485 -17 445 6 c 0
 407 28 356 80 338 131 c 0
 330 155 326 174 320 192 c 0
 310 218 296 236 271 250 c 1
 182 179 l 1
 182 78 l 2
 182 37 190 37 265 37 c 1
 265 0 l 1
 145 3 l 1
 26 0 l 1
 26 37 l 1
 101 37 109 37 109 78 c 2
 109 594 l 2
 109 640 103 646 26 646 c 1
 26 683 l 1
 185 694 l 1
 185 222 l 1
 330 338 l 2
 342 348 352 358 352 375 c 0
 352 386 343 396 321 397 c 1
 321 433 l 1
 339 432 405 430 443 430 c 0
 473 430 486 430 520 434 c 1
 520 397 l 1
 495 396 452 393 386 344 c 0
 376 336 309 284 299 273 c 1
 345 259 389 240 418 182 c 0
 430 159 451 99 463 78 c 0
 476 53 514 13 553 13 c 0
 564 13 571 9 571 1 c 0
 571 -7 566 -9 554 -12 c 0
EndSplineSet
EndChar

StartChar: l
Encoding: 108 108 67
Width: 519
Flags: MW
HStem: 0 26 656 26
VStem: 104 73 437 26
LayerCount: 2
Fore
SplineSet
472 0 m 1
 31 0 l 1
 31 32 l 1
 42 32 l 2
 93 32 107 37 107 70 c 2
 107 611 l 2
 107 645 93 650 42 650 c 2
 31 650 l 1
 31 682 l 1
 72 680 111 679 151 679 c 0
 195 679 238 680 286 682 c 1
 286 650 l 1
 271 650 l 2
 191 650 191 638 191 602 c 2
 191 69 l 2
 191 33 194 32 245 32 c 2
 280 32 l 2
 353 32 395 43 425 79 c 0
 453 113 456 159 460 199 c 1
 494 199 l 1
 472 0 l 1
EndSplineSet
EndChar

StartChar: m
Encoding: 109 109 68
Width: 833
Flags: MW
HStem: 0 24<246 246> 412 24
VStem: 66 82 359 71 641 81
LayerCount: 2
Fore
SplineSet
589 0 m 1
 589 24 l 1
 646 68 676 142 676 224 c 0
 676 309 658 405 565 405 c 0
 507 405 459 353 459 298 c 2
 459 55 l 2
 459 36 470 30 523 30 c 2
 542 30 l 1
 542 0 l 1
 514 2 445 2 419 2 c 0
 392 2 325 2 297 0 c 1
 297 30 l 1
 317 30 l 2
 369 30 377 36 377 55 c 2
 377 250 l 2
 377 326 340 406 269 406 c 0
 185 406 160 311 160 229 c 0
 160 152 182 79 246 24 c 1
 246 0 l 1
 143 2 l 1
 61 0 l 1
 61 26 l 1
 89 26 111 30 126 35 c 0
 139 39 147 43 143 47 c 0
 111 79 67 152 67 214 c 0
 67 330 155 436 281 436 c 0
 340 436 388 407 420 365 c 1
 433 365 l 1
 471 407 521 438 588 438 c 0
 691 438 768 340 768 239 c 0
 768 157 724 78 689 41 c 0
 687 39 687 37 691 35 c 0
 706 27 754 25 770 26 c 1
 772 0 l 1
 589 0 l 1
EndSplineSet
EndChar

StartChar: n
Encoding: 110 110 69
Width: 585
Flags: MW
HStem: 0 31 401 31
VStem: 101 28 420 28
LayerCount: 2
Fore
SplineSet
478 325 m 2
 478 37 l 2
 478 14 469 0 455 0 c 0
 440 0 420 22 396 50 c 2
 140 360 l 1
 140 105 l 2
 140 50 172 37 223 36 c 1
 223 0 l 1
 186 2 153 3 120 3 c 0
 88 3 56 2 21 0 c 1
 21 36 l 1
 90 38 104 65 104 106 c 2
 104 390 l 1
 80 395 53 396 28 396 c 2
 21 396 l 1
 21 432 l 1
 146 432 l 2
 172 432 184 423 205 397 c 2
 442 108 l 1
 442 322 l 2
 442 358 438 394 359 396 c 1
 359 432 l 1
 396 430 429 429 462 429 c 0
 494 429 526 430 561 432 c 1
 561 396 l 1
 483 394 478 357 478 325 c 2
EndSplineSet
EndChar

StartChar: o
Encoding: 111 111 70
Width: 530
Flags: MW
HStem: -11 25 426 22
VStem: 28 83 388 83
LayerCount: 2
Fore
SplineSet
264 -11 m 0
 138 -11 26 85 26 214 c 0
 26 339 131 448 265 448 c 0
 395 448 502 342 502 214 c 0
 502 87 394 -11 264 -11 c 0
381 358 m 0
 354 399 309 420 264 420 c 0
 223 420 173 400 146 356 c 0
 121 315 121 267 121 222 c 0
 121 177 122 124 147 84 c 0
 175 40 220 20 265 20 c 0
 317 20 362 48 385 91 c 0
 408 134 408 186 408 222 c 0
 408 260 408 316 381 358 c 0
EndSplineSet
EndChar

StartChar: p
Encoding: 112 112 71
Width: 589
Flags: MW
HStem: -194 31 -11 22 417 25
VStem: 106 69 438 83
LayerCount: 2
Fore
SplineSet
189 47 m 1
 189 -116 l 2
 189 -157 197 -157 271 -157 c 1
 271 -194 l 1
 148 -191 l 1
 26 -194 l 1
 26 -157 l 1
 101 -157 109 -157 109 -116 c 2
 109 348 l 2
 109 389 105 394 26 394 c 1
 26 431 l 1
 185 442 l 1
 185 381 l 1
 209 404 253 442 331 442 c 0
 451 442 555 342 555 215 c 0
 555 86 444 -13 316 -13 c 0
 248 -13 204 25 189 47 c 1
322 411 m 0
 270 411 219 383 189 334 c 1
 189 114 l 2
 189 95 189 94 203 74 c 0
 231 34 270 15 312 15 c 0
 388 15 461 96 461 215 c 0
 461 327 397 411 322 411 c 0
EndSplineSet
EndChar

StartChar: q
Encoding: 113 113 72
Width: 530
Flags: MW
HStem: -122 73 -11 25 82 20 426 22
VStem: 28 83 192 20 388 83
LayerCount: 2
Fore
SplineSet
420 -122 m 0
 350 -122 337 -52 327 -4 c 1
 325 -5 322 -5 320 -6 c 0
 302 -10 283 -12 264 -12 c 0
 138 -12 26 84 26 213 c 0
 26 339 131 448 265 448 c 0
 395 448 502 342 502 213 c 0
 502 120 445 44 364 8 c 1
 376 -16 393 -43 426 -43 c 0
 453 -43 479 -28 484 -4 c 0
 486 5 487 14 500 14 c 0
 504 14 511 8 511 -4 c 0
 511 -37 493 -122 420 -122 c 0
381 357 m 0
 354 399 309 420 264 420 c 0
 223 420 173 400 146 355 c 0
 121 315 121 267 121 221 c 0
 121 176 122 123 147 83 c 0
 162 59 181 43 203 32 c 1
 201 38 200 43 200 49 c 0
 200 73 223 106 265 106 c 0
 306 106 330 75 346 45 c 1
 384 72 400 115 405 158 c 0
 408 182 408 204 408 221 c 0
 408 259 408 316 381 357 c 0
265 80 m 0
 243 80 227 65 227 48 c 0
 227 38 236 19 265 19 c 0
 276 19 294 20 318 29 c 1
 310 54 297 80 265 80 c 0
EndSplineSet
EndChar

StartChar: r
Encoding: 114 114 73
Width: 506
Flags: MW
HStem: 0 31 213 16 417 26
VStem: 72 70 308 78
LayerCount: 2
Fore
SplineSet
479 2 m 0
 468 2 455 0 439 1 c 0
 424 2 407 5 391 14 c 0
 361 32 325 66 311 107 c 0
 304 125 301 141 296 154 c 0
 291 168 285 179 272 190 c 0
 250 210 220 210 207 210 c 1
 207 231 l 1
 323 249 323 300 323 339 c 0
 323 372 292 412 258 412 c 0
 221 412 181 373 154 334 c 1
 154 78 l 2
 154 36 156 37 227 37 c 1
 227 0 l 1
 117 3 l 1
 10 0 l 1
 10 37 l 1
 70 37 73 36 73 78 c 2
 73 375 l 2
 73 396 73 412 22 412 c 2
 5 412 l 1
 4 449 l 1
 54 447 107 448 154 450 c 1
 154 380 l 1
 194 423 238 444 289 444 c 0
 329 444 412 414 412 339 c 0
 412 293 376 242 288 218 c 1
 329 205 362 194 382 153 c 0
 389 141 392 127 396 115 c 0
 401 100 405 86 410 78 c 0
 421 59 447 27 479 27 c 0
 488 27 494 20 494 14 c 0
 494 8 491 2 479 2 c 0
EndSplineSet
EndChar

StartChar: s
Encoding: 115 115 74
Width: 418
Flags: MW
HStem: -11 22 429 19
VStem: 33 27 312 48
LayerCount: 2
Fore
SplineSet
211 -11 m 0
 189 -11 141 -10 94 30 c 1
 89 24 82 18 77 12 c 0
 72 5 57 -11 47 -11 c 0
 33 -11 32 -4 32 16 c 2
 32 146 l 2
 32 166 33 174 49 174 c 0
 62 174 64 167 67 154 c 0
 87 71 124 17 211 17 c 0
 292 17 328 55 328 104 c 0
 328 172 244 187 220 191 c 0
 144 205 113 211 79 237 c 0
 49 260 32 288 32 324 c 0
 32 381 74 448 205 448 c 0
 221 448 264 448 304 421 c 1
 309 425 317 432 320 435 c 0
 334 447 337 448 343 448 c 0
 357 448 358 441 358 421 c 2
 358 322 l 2
 358 300 357 295 341 295 c 0
 334 295 326 298 325 307 c 0
 323 331 320 355 307 377 c 0
 291 402 262 423 205 423 c 0
 115 423 89 384 89 351 c 0
 89 297 156 284 217 273 c 0
 261 265 304 257 339 225 c 0
 352 213 385 183 385 129 c 0
 385 56 335 -11 211 -11 c 0
EndSplineSet
EndChar

StartChar: t
Encoding: 116 116 75
Width: 513
Flags: MW
HStem: -8 25 388 45
VStem: 23 25 77 83 427 26
LayerCount: 2
Fore
SplineSet
459 372 m 1
 433 381 427 383 396 383 c 0
 263 383 173 280 173 168 c 0
 173 67 244 23 298 23 c 0
 340 23 375 44 416 117 c 1
 441 102 458 81 462 56 c 1
 389 -5 308 -8 272 -8 c 0
 158 -8 78 53 78 151 c 0
 78 236 108 291 178 340 c 0
 196 353 216 365 236 378 c 1
 236 383 l 1
 157 383 l 2
 135 383 118 383 104 382 c 0
 91 381 83 378 76 373 c 0
 63 362 59 339 54 285 c 1
 21 285 l 1
 34 433 l 1
 391 433 l 2
 400 433 439 436 450 471 c 1
 483 468 l 1
 459 372 l 1
EndSplineSet
EndChar

StartChar: u
Encoding: 117 117 76
Width: 589
Flags: MW
HStem: -11 22 410 31
VStem: 58 74 388 69
LayerCount: 2
Fore
SplineSet
411 0 m 1
 411 98 l 1
 378 41 314 -11 257 -11 c 0
 93 -11 58 97 58 180 c 0
 58 249 84 313 117 374 c 0
 118 375 127 392 127 395 c 0
 127 399 115 404 58 404 c 1
 58 441 l 1
 223 442 l 1
 223 442 143 310 143 182 c 0
 143 101 176 17 262 17 c 0
 336 17 408 140 408 196 c 2
 408 352 l 2
 408 398 402 404 325 404 c 1
 325 441 l 1
 488 442 l 1
 488 89 l 2
 488 43 494 36 570 36 c 1
 570 0 l 1
 411 0 l 1
EndSplineSet
EndChar

StartChar: v
Encoding: 118 118 77
Width: 598
Flags: MW
HStem: -11 22 422 20<31 193 193 193 318 318>
VStem: 110 69 441 81
LayerCount: 2
Fore
SplineSet
307 -11 m 0
 144 -11 113 81 113 159 c 2
 113 317 l 2
 113 401 114 405 31 405 c 1
 31 442 l 1
 193 442 l 1
 193 111 l 2
 193 62 220 17 307 17 c 0
 401 17 464 110 464 273 c 0
 464 394 418 414 318 416 c 1
 318 442 l 1
 386 443 l 2
 493 445 556 355 556 273 c 0
 556 142 485 -11 307 -11 c 0
EndSplineSet
EndChar

StartChar: w
Encoding: 119 119 78
Width: 833
Flags: MW
HStem: 0 27 414 24<246 246>
VStem: 66 82 359 71 641 81
LayerCount: 2
Fore
SplineSet
588 0 m 0
 521 0 471 31 433 73 c 1
 420 73 l 1
 388 31 340 2 281 2 c 0
 155 2 67 108 67 224 c 0
 67 286 111 359 143 391 c 0
 147 395 139 399 126 403 c 0
 111 408 89 412 61 412 c 1
 61 438 l 1
 143 436 l 1
 246 438 l 1
 246 414 l 1
 182 359 160 286 160 209 c 0
 160 127 185 32 269 32 c 0
 340 32 377 112 377 188 c 2
 377 383 l 2
 377 402 369 408 317 408 c 2
 297 408 l 1
 297 438 l 1
 325 436 419 436 419 436 c 2
 449 435 458 415 458 391 c 2
 459 140 l 2
 459 85 507 33 565 33 c 0
 658 33 676 129 676 214 c 0
 676 355 608 410 509 412 c 1
 509 438 l 1
 598 439 l 2
 706 440 768 280 768 199 c 0
 768 98 691 0 588 0 c 0
EndSplineSet
EndChar

StartChar: x
Encoding: 120 120 79
Width: 560
Flags: MW
HStem: 0 23 408 22
LayerCount: 2
Fore
SplineSet
309 235 m 1
 449 67 l 2
 473 38 489 29 540 29 c 2
 550 29 l 1
 550 0 l 1
 513 2 479 3 444 3 c 0
 406 3 368 2 326 0 c 1
 326 28 l 1
 354 31 365 42 365 54 c 0
 365 62 354 77 334 100 c 0
 316 122 291 150 265 183 c 1
 225 138 202 112 189 95 c 0
 176 78 173 70 173 59 c 0
 173 44 181 35 195 31 c 0
 199 30 202 29 206 28 c 1
 206 0 l 1
 168 2 135 3 101 3 c 0
 71 3 43 2 10 0 c 1
 10 28 l 1
 65 31 98 49 130 81 c 0
 147 96 163 115 181 137 c 0
 199 159 219 183 244 209 c 1
 115 364 l 2
 91 393 75 402 24 402 c 2
 15 402 l 1
 15 430 l 1
 48 429 77 428 117 428 c 0
 156 428 195 428 237 430 c 1
 237 403 l 1
 210 400 199 387 199 377 c 0
 199 375 199 373 200 371 c 0
 201 369 203 365 209 358 c 0
 219 343 242 316 288 260 c 1
 315 294 335 314 348 331 c 0
 362 347 368 358 368 372 c 0
 368 387 360 396 345 400 c 0
 342 401 339 402 335 403 c 1
 335 430 l 1
 372 428 407 428 441 428 c 0
 471 428 499 428 531 430 c 1
 531 403 l 1
 477 400 444 382 412 352 c 0
 397 338 382 320 365 300 c 0
 348 280 330 258 309 235 c 1
EndSplineSet
EndChar

StartChar: y
Encoding: 121 121 80
Width: 560
Flags: MW
HStem: -195 31 408 22
VStem: 230 67
LayerCount: 2
Fore
SplineSet
479 368 m 0
 463 348 453 321 443 297 c 2
 325 16 l 2
 319 1 318 -2 318 -15 c 2
 318 -115 l 2
 318 -151 321 -158 390 -158 c 2
 401 -158 l 1
 401 -195 l 1
 357 -193 316 -192 276 -192 c 0
 252 -192 218 -192 158 -195 c 1
 158 -158 l 1
 165 -158 l 2
 236 -158 241 -152 241 -115 c 2
 241 -15 l 2
 241 -2 240 1 233 16 c 2
 90 359 l 2
 72 402 57 402 5 402 c 1
 5 430 l 1
 43 428 76 428 110 428 c 0
 149 428 188 428 230 430 c 1
 230 402 l 1
 210 402 170 403 170 376 c 0
 170 371 171 367 172 363 c 0
 176 350 283 97 303 50 c 1
 308 61 313 73 317 83 c 2
 415 317 l 2
 420 330 427 344 427 359 c 0
 427 384 409 399 376 403 c 1
 376 430 l 1
 410 428 441 428 472 428 c 0
 498 428 525 428 553 430 c 1
 553 402 l 1
 515 400 494 387 479 368 c 0
EndSplineSet
EndChar

StartChar: z
Encoding: 122 122 81
Width: 471
Flags: MW
HStem: 0 25 409 22
VStem: 42 25 376 25
LayerCount: 2
Fore
SplineSet
410 0 m 1
 57 0 l 2
 34 0 26 1 26 17 c 0
 26 23 28 25 37 36 c 2
 329 403 l 1
 214 403 l 2
 100 403 80 369 74 266 c 1
 41 266 l 1
 53 431 l 1
 395 431 l 2
 417 431 426 430 426 415 c 0
 426 410 425 408 416 397 c 2
 125 31 l 1
 244 31 l 2
 364 31 386 72 396 190 c 1
 429 190 l 1
 410 0 l 1
EndSplineSet
EndChar

StartChar: dieresis
Encoding: 168 168 82
Width: 339
Flags: MW
HStem: 557 95<59.5 91 58 92 248.5 279.5>
VStem: 22 97 200 97
LayerCount: 2
Fore
SplineSet
263 557 m 0
 234 557 209 580 209 605 c 0
 209 627 229 652 265 652 c 0
 294 652 319 629 319 605 c 0
 319 582 299 557 263 557 c 0
74 557 m 0
 45 557 20 580 20 605 c 0
 20 627 40 652 76 652 c 0
 106 652 130 629 130 605 c 0
 130 582 110 557 74 557 c 0
EndSplineSet
EndChar

StartChar: tonos
Encoding: 900 900 83
Width: 177
Flags: MW
HStem: 680 20G<118 133>
LayerCount: 2
Fore
SplineSet
165 632 m 0
 155 620 137 600 102 560 c 2
 33 481 l 2
 29 477 14 487 14 490 c 0
 14 493 92 674 95 679 c 0
 98 685 108 700 128 700 c 0
 138 700 177 693 177 660 c 0
 177 651 176 645 165 632 c 0
EndSplineSet
EndChar

StartChar: dieresistonos
Encoding: 901 901 84
Width: 295
Flags: MW
HStem: 483 78 680 20G<206.5 237>
VStem: 13 78 186 79
LayerCount: 2
Fore
SplineSet
260 643 m 0
 259 640 250 630 238 616 c 0
 199 570 159 524 119 478 c 1
 102 488 l 2
 102 491 176 666 182 679 c 0
 185 685 195 700 218 700 c 0
 256 700 265 670 265 661 c 0
 265 655 264 649 260 643 c 0
240 483 m 0
 213 483 194 503 194 525 c 0
 194 544 211 566 241 566 c 0
 267 566 286 546 286 525 c 0
 286 505 269 483 240 483 c 0
54 483 m 0
 28 483 8 503 8 525 c 0
 8 544 26 566 55 566 c 0
 81 566 101 546 101 525 c 0
 101 505 84 483 54 483 c 0
EndSplineSet
EndChar

StartChar: Alphatonos
Encoding: 902 902 85
Width: 753
Flags: MW
HStem: 0 32 649 34
LayerCount: 2
Fore
SplineSet
726 0 m 1
 706 4 559 3 545 0 c 0
 540 0 526 45 523 55 c 0
 513 83 501 116 491 137 c 1
 340 107 220 82 71 -20 c 1
 52 -20 30 -13 24 12 c 1
 79 96 152 198 212 289 c 0
 272 381 317 461 317 501 c 0
 317 524 310 543 294 564 c 0
 256 617 188 643 124 643 c 1
 124 683 l 1
 189 680 260 679 340 683 c 1
 637 62 l 2
 646 42 660 38 715 38 c 2
 736 38 l 1
 736 0 l 1
 726 0 l 1
362 412 m 1
 344 412 l 1
 330 391 156 133 156 128 c 0
 156 126 158 127 159 127 c 2
 162 128 l 2
 262 165 430 184 474 183 c 1
 447 240 385 365 362 412 c 1
EndSplineSet
EndChar

StartChar: anoteleia
Encoding: 903 903 86
Width: 295
Flags: MW
HStem: 323 107<130.5 162.5>
VStem: 85 107
LayerCount: 2
Fore
SplineSet
145 323 m 0
 114 323 87 347 87 375 c 0
 87 406 114 430 147 430 c 0
 180 430 207 406 207 377 c 0
 207 347 180 323 145 323 c 0
EndSplineSet
EndChar

StartChar: Epsilontonos
Encoding: 904 904 87
Width: 765
Flags: MW
HStem: -22 31 338 31 674 31
VStem: 56 103 493 25 623 32
LayerCount: 2
Fore
SplineSet
677 496 m 0
 659 496 661 502 657 515 c 0
 625 616 554 668 440 668 c 0
 379 668 186 637 173 372 c 1
 408 382 l 2
 508 386 519 401 519 488 c 1
 552 488 l 1
 552 219 l 1
 519 219 l 1
 519 305 508 321 408 325 c 2
 172 335 l 1
 174 47 378 15 441 15 c 0
 555 15 615 62 668 134 c 0
 675 143 679 150 692 143 c 0
 706 136 701 127 696 118 c 0
 647 33 570 -22 428 -22 c 0
 229 -22 56 135 56 342 c 0
 56 546 228 705 428 705 c 0
 530 705 624 700 697 590 c 1
 697 523 l 2
 697 502 697 496 677 496 c 0
EndSplineSet
EndChar

StartChar: Etatonos
Encoding: 905 905 88
Width: 795
Flags: MW
HStem: 0 31 340 31 652 31
VStem: 136 89 524 89
LayerCount: 2
Fore
SplineSet
602 3 m 0
 562 3 484 3 443 0 c 1
 443 37 l 1
 472 37 l 2
 550 37 552 46 552 80 c 2
 552 337 l 1
 242 337 l 1
 242 80 l 2
 242 46 244 37 322 37 c 2
 351 37 l 1
 351 0 l 1
 310 3 231 3 191 3 c 0
 151 3 72 3 32 0 c 1
 32 37 l 1
 60 37 l 2
 138 37 141 46 141 80 c 2
 141 603 l 2
 141 637 138 646 60 646 c 2
 32 646 l 1
 32 683 l 1
 72 680 152 680 192 680 c 0
 232 680 310 680 351 683 c 1
 351 646 l 1
 322 646 l 2
 244 646 242 637 242 603 c 2
 242 374 l 1
 552 374 l 1
 552 603 l 2
 552 637 550 646 472 646 c 2
 443 646 l 1
 443 683 l 1
 484 680 563 680 603 680 c 0
 643 680 722 680 762 683 c 1
 762 646 l 1
 734 646 l 2
 656 646 653 637 653 603 c 2
 653 80 l 2
 653 46 656 37 734 37 c 2
 762 37 l 1
 762 0 l 1
 722 3 642 3 602 3 c 0
EndSplineSet
EndChar

StartChar: Iotatonos
Encoding: 906 906 89
Width: 383
Flags: MW
HStem: 0 32 651 32
VStem: 135 91
LayerCount: 2
Fore
SplineSet
341 0 m 2
 322 3 62 3 41 0 c 2
 26 0 l 1
 26 38 l 1
 49 38 l 2
 118 38 130 41 140 61 c 1
 140 623 l 1
 134 631 131 637 120 640 c 0
 108 644 89 645 49 645 c 2
 26 645 l 1
 26 683 l 1
 41 683 l 2
 60 680 320 680 341 683 c 2
 355 683 l 1
 355 645 l 1
 333 645 l 2
 259 645 251 640 243 623 c 1
 243 61 l 1
 248 45 254 38 333 38 c 2
 355 38 l 1
 355 0 l 1
 341 0 l 2
EndSplineSet
EndChar

StartChar: Omicrontonos
Encoding: 908 908 90
Width: 825
Flags: MW
HStem: -22 26 680 25
VStem: 56 103 618 103
LayerCount: 2
Fore
SplineSet
411 -22 m 0
 221 -22 56 134 56 339 c 0
 56 545 220 705 411 705 c 0
 606 705 767 543 767 339 c 0
 767 137 606 -22 411 -22 c 0
411 674 m 0
 325 674 172 608 172 353 c 0
 172 95 313 10 412 10 c 0
 508 10 652 91 652 353 c 0
 652 605 502 674 411 674 c 0
EndSplineSet
EndChar

StartChar: Upsilontonos
Encoding: 910 910 91
Width: 825
Flags: MW
HStem: 0 32 461 83
VStem: 55 32 344 90 684 38
LayerCount: 2
Fore
SplineSet
412 475 m 1
 415 485 l 1
 435 582 489 702 619 705 c 0
 734 708 768 600 768 543 c 0
 768 509 755 457 685 457 c 0
 644 457 634 483 634 502 c 0
 634 526 651 543 683 545 c 0
 707 547 722 554 722 571 c 0
 722 614 602 652 533 584 c 0
 501 552 479 498 470 428 c 0
 467 410 466 402 465 376 c 0
 464 351 463 309 463 225 c 0
 463 136 463 95 464 75 c 0
 464 71 464 59 467 55 c 0
 467 54 468 53 469 52 c 0
 477 42 499 38 572 38 c 2
 599 38 l 1
 599 0 l 1
 584 0 l 2
 564 3 262 3 241 0 c 2
 226 0 l 1
 226 38 l 1
 252 38 l 2
 325 38 349 43 356 52 c 0
 357 54 358 55 359 57 c 0
 360 60 360 64 361 74 c 0
 362 93 361 131 361 213 c 0
 361 300 361 370 360 380 c 0
 349 532 294 622 197 622 c 0
 176 622 103 611 95 550 c 0
 94 535 91 532 75 531 c 0
 62 531 55 533 55 548 c 0
 55 607 93 694 177 704 c 0
 294 718 371 628 412 475 c 1
EndSplineSet
EndChar

StartChar: Omegatonos
Encoding: 911 911 92
Width: 1060
Flags: MW
HStem: -22 27 680 25
VStem: 55 103 457 84 840 104
LayerCount: 2
Fore
SplineSet
736 -22 m 0
 614 -22 557 39 529 82 c 1
 472 -13 365 -22 323 -22 c 0
 168 -22 55 142 55 341 c 0
 55 546 181 705 334 705 c 0
 340 705 354 701 354 690 c 0
 354 680 346 674 337 674 c 0
 272 674 171 605 171 345 c 0
 171 137 237 11 332 11 c 0
 357 11 476 30 481 79 c 0
 481 83 481 87 481 90 c 2
 481 488 l 2
 481 510 476 518 454 520 c 0
 447 520 439 520 427 521 c 1
 427 556 l 1
 461 554 491 554 522 554 c 0
 547 554 593 553 632 557 c 1
 632 521 l 1
 621 520 599 521 589 516 c 0
 581 512 577 505 577 488 c 2
 577 90 l 2
 577 71 577 68 596 53 c 0
 634 21 687 11 727 11 c 2
 728 11 l 2
 822 11 887 139 887 345 c 0
 887 607 787 674 722 674 c 0
 713 674 705 680 705 690 c 0
 705 701 718 705 725 705 c 0
 808 705 881 659 932 585 c 0
 982 513 1004 426 1004 341 c 0
 1004 143 890 -22 736 -22 c 0
EndSplineSet
EndChar

StartChar: iotadieresistonos
Encoding: 912 912 93
Width: 303
Flags: MW
HStem: 0 23 410 22 518 95
VStem: 6 97 111 70 184 97
LayerCount: 2
Fore
SplineSet
246 513 m 0
 215 513 192 537 192 563 c 0
 192 587 212 613 247 613 c 0
 277 613 301 589 301 563 c 0
 301 539 281 513 246 513 c 0
57 513 m 0
 27 513 3 537 3 563 c 0
 3 587 23 613 58 613 c 0
 89 613 112 589 112 563 c 0
 112 539 92 513 57 513 c 0
152 3 m 0
 105 3 70 1 32 0 c 1
 32 29 l 1
 43 29 l 2
 106 29 114 35 114 71 c 2
 114 363 l 2
 114 401 102 406 40 406 c 2
 32 406 l 1
 32 434 l 1
 73 432 111 432 151 432 c 0
 192 432 233 432 278 434 c 1
 278 406 l 1
 267 406 l 2
 196 406 195 398 195 345 c 2
 195 91 l 2
 195 38 196 29 267 29 c 2
 278 29 l 1
 278 0 l 1
 233 2 193 3 152 3 c 0
EndSplineSet
EndChar

StartChar: Alpha
Encoding: 913 913 94
Width: 753
Flags: MW
HStem: 0 32 649 34
LayerCount: 2
Fore
SplineSet
726 0 m 1
 706 4 559 3 545 0 c 0
 540 0 526 45 523 55 c 0
 513 83 501 116 491 137 c 1
 340 107 220 82 71 -20 c 1
 52 -20 30 -13 24 12 c 1
 79 96 152 198 212 289 c 0
 272 381 317 461 317 501 c 0
 317 524 310 543 294 564 c 0
 256 617 188 643 124 643 c 1
 124 683 l 1
 189 680 260 680 340 684 c 1
 637 62 l 2
 646 42 660 38 715 38 c 2
 736 38 l 1
 736 0 l 1
 726 0 l 1
362 412 m 1
 344 412 l 1
 330 391 156 133 156 128 c 0
 156 126 158 127 159 127 c 2
 162 128 l 2
 262 165 430 184 474 183 c 1
 447 240 385 365 362 412 c 1
EndSplineSet
EndChar

StartChar: Beta
Encoding: 914 914 95
Width: 750
Flags: MW
HStem: -22 50 344 22 668 34
VStem: 139 83 541 100
LayerCount: 2
Fore
SplineSet
346 -22 m 0
 181 -22 144 33 144 80 c 2
 144 603 l 2
 144 637 143 662 64 662 c 2
 22 662 l 1
 22 702 l 1
 98 699 167 699 238 703 c 1
 238 590 l 1
 302 660 367 693 469 693 c 0
 531 693 633 651 633 562 c 0
 633 490 526 394 444 358 c 1
 559 343 683 270 683 184 c 0
 683 83 588 -22 346 -22 c 0
328 341 m 1
 277 367 l 1
 465 396 524 500 524 562 c 0
 524 613 476 646 419 646 c 0
 372 646 300 599 238 517 c 1
 238 73 l 2
 238 49 262 34 352 34 c 0
 419 34 570 37 570 185 c 0
 570 288 426 341 328 341 c 1
EndSplineSet
EndChar

StartChar: Gamma
Encoding: 915 915 96
Width: 662
Flags: MW
HStem: -100 32 648 32
VStem: 135 90 556 26
LayerCount: 2
Fore
SplineSet
586 450 m 1
 586 456 l 1
 579 503 571 574 532 607 c 0
 511 626 484 634 455 638 c 0
 425 643 391 642 355 642 c 0
 306 643 280 644 265 642 c 0
 252 640 248 637 243 628 c 1
 242 347 l 2
 240 33 241 -39 247 -48 c 0
 255 -58 279 -62 351 -62 c 2
 377 -62 l 1
 377 -100 l 1
 361 -100 l 2
 343 -97 68 -96 45 -100 c 1
 31 -100 l 1
 31 -62 l 1
 53 -62 l 2
 129 -62 132 -57 140 -36 c 1
 140 616 l 1
 135 630 129 636 117 639 c 0
 101 643 70 642 53 642 c 2
 31 642 l 1
 31 680 l 1
 45 680 l 2
 52 679 75 679 134 679 c 0
 193 679 286 680 430 680 c 2
 590 680 l 1
 590 673 l 2
 593 665 599 614 606 565 c 0
 609 539 612 512 615 492 c 0
 618 472 620 459 620 457 c 2
 620 450 l 1
 586 450 l 1
EndSplineSet
EndChar

StartChar: Epsilon
Encoding: 917 917 97
Width: 765
Flags: MW
HStem: -22 31 338 31 674 31
VStem: 56 103 493 25 623 32
LayerCount: 2
Fore
SplineSet
677 496 m 0
 659 496 661 502 657 515 c 0
 625 616 554 668 440 668 c 0
 379 668 186 637 173 372 c 1
 408 382 l 2
 508 386 519 401 519 488 c 1
 552 488 l 1
 552 219 l 1
 519 219 l 1
 519 305 508 321 408 325 c 2
 172 335 l 1
 174 47 378 15 441 15 c 0
 555 15 615 62 668 134 c 0
 675 143 679 150 692 143 c 0
 706 136 701 127 696 118 c 0
 647 33 570 -22 428 -22 c 0
 229 -22 56 135 56 342 c 0
 56 546 228 705 428 705 c 0
 530 705 624 700 697 590 c 1
 697 523 l 2
 697 502 697 496 677 496 c 0
EndSplineSet
EndChar

StartChar: Zeta
Encoding: 918 918 98
Width: 648
Flags: MW
HStem: 0 34 652 31
VStem: 56 504
LayerCount: 2
Fore
SplineSet
579 0 m 1
 87 0 l 2
 62 0 56 1 56 20 c 0
 56 28 56 30 64 41 c 2
 473 646 l 1
 313 646 l 2
 141 646 110 568 103 454 c 1
 70 454 l 1
 82 683 l 1
 560 683 l 2
 584 683 590 682 590 664 c 0
 590 656 590 655 583 644 c 2
 174 40 l 1
 342 40 l 2
 536 40 555 130 564 271 c 1
 597 271 l 1
 579 0 l 1
EndSplineSet
EndChar

StartChar: Eta
Encoding: 919 919 99
Width: 795
Flags: MW
HStem: 0 31 340 31 652 31
VStem: 136 89 524 89
LayerCount: 2
Fore
SplineSet
602 3 m 0
 562 3 484 3 443 0 c 1
 443 37 l 1
 472 37 l 2
 550 37 552 46 552 80 c 2
 552 337 l 1
 242 337 l 1
 242 80 l 2
 242 46 244 37 322 37 c 2
 351 37 l 1
 351 0 l 1
 310 3 231 3 191 3 c 0
 151 3 72 3 32 0 c 1
 32 37 l 1
 60 37 l 2
 138 37 141 46 141 80 c 2
 141 603 l 2
 141 637 138 646 60 646 c 2
 32 646 l 1
 32 683 l 1
 72 680 152 680 192 680 c 0
 232 680 310 680 351 683 c 1
 351 646 l 1
 322 646 l 2
 244 646 242 637 242 603 c 2
 242 374 l 1
 552 374 l 1
 552 603 l 2
 552 637 550 646 472 646 c 2
 443 646 l 1
 443 683 l 1
 484 680 563 680 603 680 c 0
 643 680 722 680 762 683 c 1
 762 646 l 1
 734 646 l 2
 656 646 653 637 653 603 c 2
 653 80 l 2
 653 46 656 37 734 37 c 2
 762 37 l 1
 762 0 l 1
 722 3 642 3 602 3 c 0
EndSplineSet
EndChar

StartChar: Theta
Encoding: 920 920 100
Width: 825
Flags: MW
HStem: -22 27 324 63 680 25
VStem: 55 104 617 104
LayerCount: 2
Fore
SplineSet
411 -22 m 0
 223 -22 55 131 55 339 c 0
 55 547 220 705 411 705 c 0
 601 705 767 548 767 339 c 0
 767 130 600 -22 411 -22 c 0
565 608 m 0
 500 672 430 674 411 674 c 0
 318 674 246 611 212 545 c 0
 183 490 175 437 172 390 c 1
 651 390 l 1
 646 466 627 547 565 608 c 0
172 321 m 1
 176 243 191 149 261 78 c 0
 289 50 341 11 411 11 c 0
 518 11 626 101 648 280 c 0
 649 294 650 307 651 321 c 1
 172 321 l 1
EndSplineSet
EndChar

StartChar: Iota
Encoding: 921 921 101
Width: 383
Flags: MW
HStem: 0 32 651 32
VStem: 135 91
LayerCount: 2
Fore
SplineSet
341 0 m 2
 322 3 62 3 41 0 c 2
 26 0 l 1
 26 38 l 1
 49 38 l 2
 118 38 130 41 140 61 c 1
 140 623 l 1
 134 631 131 637 120 640 c 0
 108 644 89 645 49 645 c 2
 26 645 l 1
 26 683 l 1
 41 683 l 2
 60 680 320 680 341 683 c 2
 355 683 l 1
 355 645 l 1
 333 645 l 2
 259 645 251 640 243 623 c 1
 243 61 l 1
 248 45 254 38 333 38 c 2
 355 38 l 1
 355 0 l 1
 341 0 l 2
EndSplineSet
EndChar

StartChar: Kappa
Encoding: 922 922 102
Width: 825
Flags: MW
HStem: 0 32 651 32
VStem: 135 90
LayerCount: 2
Fore
SplineSet
771 0 m 1
 757 4 531 3 517 0 c 2
 502 0 l 1
 502 38 l 1
 519 38 l 2
 541 38 564 44 564 63 c 0
 564 68 562 74 558 82 c 0
 553 91 361 359 360 359 c 2
 360 359 354 353 344 344 c 0
 310 313 276 283 242 252 c 1
 242 159 l 2
 242 112 242 88 242 75 c 0
 242 63 243 61 244 58 c 0
 249 44 262 38 329 38 c 2
 351 38 l 1
 351 0 l 1
 337 0 l 2
 318 3 66 3 45 0 c 2
 31 0 l 1
 31 38 l 1
 53 38 l 2
 129 38 132 43 140 64 c 1
 140 619 l 1
 135 633 129 639 117 642 c 0
 101 646 70 645 53 645 c 2
 31 645 l 1
 31 683 l 1
 45 683 l 2
 64 680 316 680 337 683 c 2
 351 683 l 1
 351 645 l 1
 329 645 l 2
 316 645 246 653 242 619 c 0
 242 616 242 610 242 599 c 0
 241 578 241 536 242 454 c 2
 243 296 l 1
 406 442 l 2
 516 541 575 594 577 597 c 0
 581 603 584 610 584 617 c 0
 584 638 553 645 544 645 c 2
 536 645 l 1
 536 683 l 1
 549 683 l 1
 571 679 750 680 758 683 c 2
 768 683 l 1
 768 645 l 1
 760 645 l 2
 702 645 653 615 631 597 c 0
 625 593 600 572 575 549 c 0
 526 505 476 462 429 418 c 1
 440 400 668 86 676 77 c 0
 697 52 710 38 761 38 c 2
 783 38 l 1
 783 0 l 1
 771 0 l 1
EndSplineSet
EndChar

StartChar: Lambda
Encoding: 923 923 103
Width: 736
Flags: MW
HStem: 0 32 649 34
LayerCount: 2
Fore
SplineSet
333 563 m 1
 333 557 326 532 314 494 c 0
 268 360 221 226 175 92 c 1
 175 83 l 2
 175 60 203 38 243 38 c 2
 257 38 l 1
 257 0 l 1
 243 0 l 1
 221 4 48 2 41 0 c 2
 31 0 l 1
 31 38 l 1
 46 38 l 2
 93 38 121 61 135 99 c 0
 135 100 139 109 144 125 c 2
 167 192 l 2
 186 248 212 323 241 405 c 0
 269 487 285 534 294 560 c 2
 303 587 l 2
 304 589 304 591 305 593 c 0
 278 639 244 643 180 643 c 1
 180 683 l 1
 245 680 316 680 396 684 c 1
 401 679 577 163 599 99 c 0
 606 79 610 69 612 65 c 0
 612 63 613 62 613 61 c 2
 614 59 l 2
 623 44 634 38 677 38 c 2
 704 38 l 1
 704 0 l 1
 692 0 l 2
 681 3 453 4 429 0 c 1
 413 0 l 1
 413 38 l 1
 429 38 l 2
 458 38 503 40 503 64 c 0
 502 70 460 193 418 316 c 0
 392 392 366 468 340 543 c 2
 334 559 l 1
 333 563 l 1
EndSplineSet
EndChar

StartChar: Mu
Encoding: 924 924 104
Width: 972
Flags: MW
HStem: 0 31 652 31
VStem: 140 28 430 28 695 81
LayerCount: 2
Fore
SplineSet
181 628 m 1
 181 107 l 2
 181 81 182 37 290 37 c 1
 290 0 l 1
 163 3 l 1
 36 0 l 1
 36 37 l 1
 145 37 145 81 145 107 c 2
 145 603 l 2
 145 637 143 646 65 646 c 2
 36 646 l 1
 36 683 l 1
 218 683 l 2
 242 683 248 683 258 659 c 2
 485 111 l 1
 715 662 l 2
 723 683 726 683 753 683 c 2
 935 683 l 1
 935 646 l 1
 906 646 l 2
 828 646 826 637 826 603 c 2
 826 80 l 2
 826 46 828 37 906 37 c 2
 935 37 l 1
 935 0 l 1
 892 3 821 3 780 3 c 0
 739 3 667 3 624 0 c 1
 624 37 l 1
 653 37 l 2
 731 37 734 46 734 80 c 2
 734 636 l 1
 478 21 l 2
 474 11 470 0 456 0 c 0
 443 0 437 11 432 24 c 2
 181 628 l 1
EndSplineSet
EndChar

StartChar: Nu
Encoding: 925 925 105
Width: 795
Flags: MW
HStem: 0 31 652 31
VStem: 136 28 585 28
LayerCount: 2
Fore
SplineSet
653 576 m 2
 653 29 l 2
 653 7 652 0 635 0 c 0
 626 0 623 2 614 14 c 2
 182 609 l 2
 180 612 178 614 177 615 c 1
 177 107 l 2
 177 81 177 37 286 37 c 1
 286 0 l 1
 159 3 l 1
 32 0 l 1
 32 37 l 1
 141 37 141 81 141 107 c 2
 141 625 l 2
 141 641 140 642 118 644 c 0
 103 646 82 646 66 646 c 2
 32 646 l 1
 32 683 l 1
 215 683 l 2
 236 683 239 682 249 669 c 2
 617 162 l 1
 617 576 l 2
 617 602 616 646 508 646 c 1
 508 683 l 1
 635 680 l 1
 762 683 l 1
 762 646 l 1
 653 646 653 602 653 576 c 2
EndSplineSet
EndChar

StartChar: Xi
Encoding: 926 926 106
Width: 675
Flags: MW
HStem: 0 57 336 65 606 71
VStem: 47 26 374 94 568 26
LayerCount: 2
Fore
SplineSet
599 -97 m 1
 599 -83 l 2
 599 -39 596 -19 588 -11 c 0
 584 -6 577 -3 561 -2 c 0
 545 -1 520 -1 481 -1 c 2
 353 -1 l 1
 50 -1 l 1
 50 61 l 1
 115 87 200 120 270 156 c 0
 341 192 393 231 393 267 c 0
 393 308 329 333 263 333 c 0
 202 333 165 317 110 294 c 1
 102 307 l 1
 102 343 l 1
 469 601 l 1
 353 601 l 2
 136 601 103 599 95 595 c 0
 85 592 81 546 81 520 c 0
 81 518 80 515 64 515 c 2
 46 515 l 1
 55 677 l 1
 609 677 l 1
 609 643 l 1
 246 393 l 1
 248 389 l 1
 283 394 309 403 346 403 c 0
 396 403 499 385 499 318 c 0
 499 212 289 125 198 86 c 1
 198 76 l 1
 304 76 624 73 624 72 c 2
 633 -97 l 1
 599 -97 l 1
EndSplineSet
Substitution2: "'salt' Stylistic Alternatives lookup 0-1" Xi.alt
EndChar

StartChar: Omicron
Encoding: 927 927 107
Width: 825
Flags: MW
HStem: -22 26 680 25
VStem: 56 103 618 103
LayerCount: 2
Fore
SplineSet
411 -22 m 0
 221 -22 56 134 56 339 c 0
 56 545 220 705 411 705 c 0
 606 705 767 543 767 339 c 0
 767 137 606 -22 411 -22 c 0
411 674 m 0
 325 674 172 608 172 353 c 0
 172 95 313 10 412 10 c 0
 508 10 652 91 652 353 c 0
 652 605 502 674 411 674 c 0
EndSplineSet
EndChar

StartChar: Pi
Encoding: 928 928 108
Width: 795
Flags: MW
HStem: 0 32 648 30
VStem: 135 90 524 90
LayerCount: 2
Fore
SplineSet
749 0 m 2
 730 3 478 3 457 0 c 2
 443 0 l 1
 443 38 l 1
 465 38 l 2
 541 38 545 43 552 64 c 1
 552 642 l 1
 242 642 l 1
 242 64 l 1
 251 38 265 38 329 38 c 2
 351 38 l 1
 351 0 l 1
 337 0 l 2
 318 3 66 3 45 0 c 2
 31 0 l 1
 31 38 l 1
 53 38 l 2
 129 38 132 43 140 64 c 1
 140 616 l 1
 135 630 129 636 117 639 c 0
 101 643 70 642 53 642 c 2
 31 642 l 1
 31 680 l 1
 45 680 l 2
 50 679 178 676 212 678 c 0
 229 679 267 680 397 680 c 0
 514 680 553 679 578 678 c 0
 602 677 613 677 671 678 c 2
 722 679 l 2
 736 679 746 679 749 680 c 2
 763 680 l 1
 763 642 l 1
 741 642 l 2
 667 642 662 638 654 616 c 1
 654 64 l 1
 664 38 677 38 741 38 c 2
 763 38 l 1
 763 0 l 1
 749 0 l 2
EndSplineSet
EndChar

StartChar: Rho
Encoding: 929 929 109
Width: 722
Flags: MW
HStem: 0 31 315 27 651 32
VStem: 138 89 520 104
LayerCount: 2
Fore
SplineSet
480 318 m 0
 465 315 459 314 443 313 c 0
 427 313 400 313 341 312 c 1
 341 345 l 1
 360 345 389 344 419 348 c 0
 450 352 483 361 509 381 c 0
 542 407 548 451 548 495 c 0
 548 587 514 642 402 645 c 0
 390 645 372 645 341 645 c 0
 302 646 269 644 266 644 c 0
 246 642 245 635 245 631 c 2
 244 80 l 2
 244 46 246 37 324 37 c 2
 353 37 l 1
 353 0 l 1
 312 3 233 3 193 3 c 0
 153 3 74 3 34 0 c 1
 34 37 l 1
 63 37 l 2
 141 37 143 46 143 80 c 2
 142 619 l 1
 137 633 131 639 119 642 c 0
 103 646 72 645 55 645 c 2
 33 645 l 1
 33 683 l 1
 47 683 l 2
 65 680 113 680 173 681 c 0
 232 682 302 683 360 683 c 0
 412 683 468 684 517 666 c 0
 554 653 665 604 665 495 c 0
 665 422 599 342 480 318 c 0
EndSplineSet
EndChar

StartChar: Sigma
Encoding: 931 931 110
Width: 765
Flags: MW
HStem: -22 31 674 31
VStem: 56 103 623 32
LayerCount: 2
Fore
SplineSet
677 496 m 0
 659 496 661 502 657 515 c 0
 625 616 554 668 440 668 c 0
 376 668 172 635 172 341 c 0
 172 48 377 15 441 15 c 0
 555 15 615 62 668 134 c 0
 675 143 679 150 692 143 c 0
 706 136 701 127 696 118 c 0
 647 33 570 -22 428 -22 c 0
 229 -22 56 135 56 342 c 0
 56 546 228 705 428 705 c 0
 530 705 624 700 697 590 c 1
 697 523 l 2
 697 502 697 496 677 496 c 0
EndSplineSet
EndChar

StartChar: Tau
Encoding: 932 932 111
Width: 765
Flags: MW
HStem: 0 31 452 21G 646 31
VStem: 36 25 316 89 660 25
LayerCount: 2
Fore
SplineSet
697 448 m 1
 682 609 667 640 509 640 c 0
 499 640 487 640 475 640 c 0
 464 640 454 639 449 638 c 0
 436 636 434 628 433 617 c 0
 432 613 432 609 432 604 c 2
 432 81 l 2
 432 49 433 37 541 37 c 2
 586 37 l 1
 586 0 l 1
 539 3 430 3 382 3 c 0
 333 3 225 3 178 0 c 1
 178 37 l 1
 224 37 l 2
 331 37 332 49 332 81 c 2
 332 604 l 2
 332 627 332 635 312 638 c 0
 302 640 275 640 255 640 c 0
 98 640 83 609 68 448 c 1
 35 448 l 1
 55 677 l 1
 709 677 l 1
 730 448 l 1
 697 448 l 1
EndSplineSet
EndChar

StartChar: Upsilon
Encoding: 933 933 112
Width: 825
Flags: MW
HStem: 0 32 461 83
VStem: 55 32 344 90 684 38
LayerCount: 2
Fore
SplineSet
412 475 m 1
 415 485 l 1
 435 582 489 702 619 705 c 0
 734 708 768 600 768 543 c 0
 768 509 755 457 685 457 c 0
 644 457 634 483 634 502 c 0
 634 526 651 543 683 545 c 0
 707 547 722 554 722 571 c 0
 722 614 602 652 533 584 c 0
 501 552 479 498 470 428 c 0
 467 410 466 402 465 376 c 0
 464 351 463 309 463 225 c 0
 463 136 463 95 464 75 c 0
 464 71 464 59 467 55 c 0
 467 54 468 53 469 52 c 0
 477 42 499 38 572 38 c 2
 599 38 l 1
 599 0 l 1
 584 0 l 2
 564 3 262 3 241 0 c 2
 226 0 l 1
 226 38 l 1
 252 38 l 2
 325 38 349 43 356 52 c 0
 357 54 358 55 359 57 c 0
 360 60 360 64 361 74 c 0
 362 93 361 131 361 213 c 0
 361 300 361 370 360 380 c 0
 349 532 294 622 197 622 c 0
 176 622 103 611 95 550 c 0
 94 535 91 532 75 531 c 0
 62 531 55 533 55 548 c 0
 55 607 93 694 177 704 c 0
 294 718 371 628 412 475 c 1
EndSplineSet
EndChar

StartChar: Phi
Encoding: 934 934 113
Width: 765
Flags: MW
HStem: -100 32 136 24 523 24 751 32
VStem: 55 101 316 84 564 102
LayerCount: 2
Fore
SplineSet
437 135 m 1
 427 135 l 1
 427 1 l 2
 427 -40 428 -40 433 -48 c 0
 441 -58 463 -62 536 -62 c 2
 563 -62 l 1
 563 -100 l 1
 548 -100 l 2
 528 -97 231 -97 211 -100 c 2
 196 -100 l 1
 196 -62 l 1
 223 -62 l 2
 282 -62 309 -60 321 -52 c 0
 327 -48 330 -42 331 -33 c 0
 332 -25 332 -13 332 1 c 2
 332 135 l 1
 307 139 286 141 264 146 c 0
 241 152 218 160 188 173 c 0
 103 214 55 276 55 342 c 0
 55 466 204 534 332 548 c 1
 332 682 l 2
 332 723 331 723 326 731 c 0
 318 741 296 745 223 745 c 2
 196 745 l 1
 196 783 l 1
 211 783 l 2
 231 780 528 780 548 783 c 2
 563 783 l 1
 563 745 l 1
 536 745 l 2
 477 745 450 743 438 735 c 0
 432 731 429 725 428 716 c 0
 427 708 427 696 427 682 c 2
 427 548 l 1
 536 540 709 478 709 341 c 0
 709 217 555 145 437 135 c 1
553 465 m 0
 514 504 449 519 428 519 c 2
 427 519 l 1
 427 164 l 1
 430 164 438 165 447 167 c 0
 530 183 583 229 593 306 c 0
 595 322 595 335 595 342 c 0
 595 416 570 448 553 465 c 0
333 519 m 0
 313 519 248 501 211 465 c 0
 194 448 169 414 169 342 c 0
 169 267 194 235 211 218 c 0
 237 192 274 175 318 167 c 0
 326 165 333 164 334 164 c 0
 335 164 332 200 332 342 c 0
 332 510 335 519 333 519 c 0
EndSplineSet
EndChar

StartChar: Chi
Encoding: 935 935 114
Width: 795
Flags: MW
HStem: 0 31 652 31
VStem: 24 702
LayerCount: 2
Fore
SplineSet
632 3 m 2
 592 4 514 3 474 0 c 1
 474 37 l 1
 523 38 543 55 543 63 c 0
 543 65 539 71 538 73 c 2
 373 306 l 1
 225 101 l 2
 217 91 215 87 215 79 c 0
 215 63 231 38 282 37 c 1
 282 0 l 1
 196 6 109 2 22 0 c 1
 22 37 l 1
 80 37 135 48 170 92 c 0
 173 95 175 98 177 101 c 2
 349 339 l 1
 155 613 l 2
 136 640 117 646 59 646 c 2
 36 646 l 1
 36 683 l 1
 177 680 l 2
 217 679 294 680 335 683 c 1
 335 646 l 1
 286 645 266 628 266 620 c 0
 266 616 271 609 273 606 c 2
 407 419 l 1
 525 583 l 2
 531 590 534 594 534 604 c 0
 534 624 513 645 469 646 c 1
 469 683 l 1
 557 677 639 681 728 683 c 1
 728 646 l 1
 632 645 597 614 574 583 c 2
 430 386 l 1
 652 71 l 2
 673 41 695 37 749 37 c 2
 773 37 l 1
 773 0 l 1
 632 3 l 2
EndSplineSet
EndChar

StartChar: Psi
Encoding: 936 936 115
Width: 825
Flags: MW
HStem: -100 32 530 23 751 32
VStem: 124 82 344 84 569 82
LayerCount: 2
Fore
SplineSet
753 526 m 0
 716 526 706 486 701 459 c 0
 700 454 699 446 696 441 c 2
 695 407 l 2
 695 390 693 370 693 363 c 0
 676 235 595 154 466 136 c 2
 459 135 l 1
 459 135 458 135 457 134 c 2
 457 1 l 2
 457 -40 457 -40 463 -48 c 0
 470 -58 493 -62 566 -62 c 2
 593 -62 l 1
 593 -100 l 1
 577 -100 l 2
 557 -97 261 -97 241 -100 c 2
 226 -100 l 1
 226 -62 l 1
 252 -62 l 2
 312 -62 338 -60 351 -52 c 0
 356 -48 359 -42 360 -33 c 0
 362 -25 361 -13 361 1 c 2
 361 135 l 1
 349 137 l 1
 141 179 128 350 128 408 c 0
 128 461 116 526 71 526 c 0
 62 526 55 533 55 541 c 0
 55 548 58 552 66 554 c 0
 77 556 98 555 109 555 c 0
 147 554 151 554 158 551 c 0
 193 541 213 508 222 453 c 0
 222 437 225 365 229 339 c 0
 241 262 274 197 361 167 c 1
 361 490 l 2
 361 616 362 674 361 702 c 0
 361 704 361 724 358 728 c 0
 357 729 357 729 356 731 c 0
 348 741 325 745 252 745 c 2
 226 745 l 1
 226 783 l 1
 241 783 l 2
 261 780 557 780 577 783 c 2
 593 783 l 1
 593 745 l 1
 566 745 l 2
 559 745 478 750 460 728 c 0
 457 724 457 704 457 702 c 0
 457 674 457 616 457 490 c 2
 457 167 l 1
 464 169 473 171 484 175 c 0
 536 196 567 241 583 290 c 0
 594 324 598 353 600 409 c 0
 601 428 602 446 602 453 c 0
 608 490 623 543 671 553 c 0
 682 555 706 555 715 555 c 2
 759 555 l 2
 760 554 766 549 767 547 c 0
 768 545 768 544 768 541 c 0
 768 528 759 526 753 526 c 0
EndSplineSet
EndChar

StartChar: Iotadieresis
Encoding: 938 938 116
Width: 383
Flags: MW
HStem: 0 32 651 32
VStem: 135 91
LayerCount: 2
Fore
SplineSet
284 731 m 0
 254 731 230 755 230 781 c 0
 230 805 250 831 285 831 c 0
 316 831 339 807 339 781 c 0
 339 757 319 731 284 731 c 0
95 731 m 0
 65 731 41 755 41 781 c 0
 41 805 62 831 96 831 c 0
 127 831 151 807 151 781 c 0
 151 757 130 731 95 731 c 0
341 0 m 2
 322 3 62 3 41 0 c 2
 26 0 l 1
 26 38 l 1
 49 38 l 2
 118 38 130 41 140 61 c 1
 140 624 l 1
 134 632 131 638 120 641 c 0
 108 645 89 646 49 646 c 2
 26 646 l 1
 26 684 l 1
 41 684 l 2
 60 681 320 681 341 684 c 2
 355 684 l 1
 355 646 l 1
 333 646 l 2
 259 646 251 641 243 624 c 1
 243 61 l 1
 248 45 254 38 333 38 c 2
 355 38 l 1
 355 0 l 1
 341 0 l 2
EndSplineSet
EndChar

StartChar: Upsilondieresis
Encoding: 939 939 117
Width: 825
Flags: MW
HStem: 0 32 727 106
VStem: 344 90
LayerCount: 2
Fore
SplineSet
507 731 m 0
 476 731 453 755 453 781 c 0
 453 805 473 831 508 831 c 0
 538 831 562 807 562 781 c 0
 562 757 542 731 507 731 c 0
318 731 m 0
 288 731 264 755 264 781 c 0
 264 805 284 831 319 831 c 0
 349 831 373 807 373 781 c 0
 373 757 353 731 318 731 c 0
412 475 m 1
 415 486 l 1
 435 582 489 703 619 706 c 0
 734 709 768 601 768 544 c 0
 768 510 755 458 685 458 c 0
 644 458 634 483 634 502 c 0
 634 527 651 544 683 546 c 0
 707 548 722 555 722 572 c 0
 722 615 602 653 533 585 c 0
 501 553 479 499 470 429 c 0
 467 411 466 402 465 377 c 0
 464 352 463 310 463 225 c 0
 463 137 463 95 464 75 c 0
 464 72 464 59 467 55 c 0
 467 54 468 54 469 52 c 0
 477 42 499 38 572 38 c 2
 599 38 l 1
 599 0 l 1
 584 0 l 2
 564 3 262 3 241 0 c 2
 226 0 l 1
 226 38 l 1
 252 38 l 2
 325 38 349 43 356 52 c 0
 357 54 358 55 359 57 c 0
 360 60 360 64 361 74 c 0
 362 93 361 131 361 213 c 0
 361 301 361 370 360 380 c 0
 349 533 294 623 197 623 c 0
 176 623 103 612 95 551 c 0
 94 536 91 533 75 532 c 0
 62 532 55 534 55 549 c 0
 55 608 93 695 177 705 c 0
 294 719 371 629 412 475 c 1
EndSplineSet
EndChar

StartChar: alphatonos
Encoding: 940 940 118
Width: 558
Flags: MW
HStem: 0 31 401 31
LayerCount: 2
Fore
SplineSet
389 0 m 1
 346 87 l 1
 340 87 l 1
 231 65 144 50 52 -13 c 1
 40 -13 24 -8 20 9 c 1
 92 118 183 183 204 319 c 0
 211 372 154 395 78 395 c 1
 78 432 l 1
 199 430 l 2
 226 430 234 423 250 397 c 2
 438 76 l 2
 461 37 507 36 546 36 c 1
 546 0 l 1
 389 0 l 1
251 263 m 1
 244 263 l 1
 199 196 142 98 142 95 c 0
 142 93 143 95 144 95 c 0
 207 119 295 126 324 126 c 1
 306 163 265 234 251 263 c 1
EndSplineSet
EndChar

StartChar: epsilontonos
Encoding: 941 941 119
Width: 484
Flags: MW
HStem: -14 25 427 24
VStem: 102 15 306 26 395 24
LayerCount: 2
Fore
SplineSet
275 -14 m 0
 147 -14 35 87 35 219 c 0
 35 350 146 451 275 451 c 0
 339 451 399 448 447 377 c 1
 447 334 l 2
 447 318 446 313 434 313 c 0
 422 313 419 320 416 329 c 0
 395 392 348 421 275 421 c 0
 245 421 127 405 127 218 c 0
 127 32 252 17 282 17 c 0
 355 17 388 42 422 87 c 0
 432 100 450 94 450 85 c 0
 450 82 448 79 447 76 c 0
 416 21 366 -14 275 -14 c 0
321 139 m 1
 321 195 321 200 261 204 c 2
 105 215 l 1
 105 239 l 1
 261 249 l 2
 321 253 321 257 321 313 c 1
 355 313 l 1
 355 139 l 1
 321 139 l 1
EndSplineSet
EndChar

StartChar: etatonos
Encoding: 942 942 120
Width: 588
Flags: MW
HStem: 0 23 226 22 408 22
VStem: 103 70 380 70
LayerCount: 2
Fore
SplineSet
437 3 m 2
 432 3 l 2
 418 3 383 3 318 0 c 1
 318 29 l 1
 326 29 l 2
 389 29 401 34 401 73 c 0
 401 79 400 85 400 91 c 2
 400 223 l 1
 187 223 l 1
 187 73 l 2
 187 33 197 29 260 29 c 2
 268 29 l 1
 268 0 l 1
 224 2 183 3 142 3 c 2
 138 3 l 2
 123 3 88 3 23 0 c 1
 23 29 l 1
 35 29 l 2
 97 29 106 35 106 71 c 2
 106 360 l 2
 106 396 96 402 34 402 c 2
 23 402 l 1
 23 430 l 1
 66 428 105 428 144 428 c 0
 184 428 225 428 268 430 c 1
 268 402 l 1
 262 402 l 2
 201 402 187 398 187 360 c 2
 187 251 l 1
 400 251 l 1
 400 360 l 2
 400 398 386 402 325 402 c 2
 318 402 l 1
 318 430 l 1
 361 428 399 428 438 428 c 0
 478 428 519 428 563 430 c 1
 563 402 l 1
 552 402 l 2
 489 402 480 395 480 360 c 2
 480 71 l 2
 480 35 489 29 551 29 c 2
 563 29 l 1
 563 0 l 1
 518 2 478 3 437 3 c 2
EndSplineSet
EndChar

StartChar: iotatonos
Encoding: 943 943 121
Width: 303
Flags: MW
HStem: 0 23 410 22
VStem: 111 70
LayerCount: 2
Fore
SplineSet
152 3 m 0
 105 3 70 1 32 0 c 1
 32 29 l 1
 43 29 l 2
 106 29 114 35 114 71 c 2
 114 362 l 2
 114 400 102 404 40 404 c 2
 32 404 l 1
 32 432 l 1
 73 430 111 430 151 430 c 0
 192 430 233 430 278 432 c 1
 278 404 l 1
 267 404 l 2
 196 404 195 396 195 343 c 2
 195 91 l 2
 195 38 196 29 267 29 c 2
 278 29 l 1
 278 0 l 1
 233 2 193 3 152 3 c 0
EndSplineSet
EndChar

StartChar: upsilondieresistonos
Encoding: 944 944 122
Width: 568
Flags: MW
HStem: -195 31 247 61 518 95
VStem: 16 24 127 97 230 67 305 97 482 28
LayerCount: 2
Fore
SplineSet
374 513 m 0
 344 513 320 537 320 563 c 0
 320 587 340 613 375 613 c 0
 406 613 429 589 429 563 c 0
 429 539 409 513 374 513 c 0
185 513 m 0
 155 513 131 537 131 563 c 0
 131 587 152 613 187 613 c 0
 217 613 241 589 241 563 c 0
 241 539 220 513 185 513 c 0
279 259 m 1
 279 261 280 263 280 266 c 0
 296 337 335 427 432 429 c 0
 518 432 544 350 544 308 c 0
 544 283 533 244 480 244 c 0
 449 244 441 262 441 277 c 0
 441 297 456 309 480 310 c 0
 497 311 508 317 508 329 c 0
 508 360 420 389 369 339 c 0
 344 315 328 275 321 224 c 0
 318 197 318 194 318 69 c 2
 318 -115 l 2
 318 -151 321 -158 390 -158 c 2
 401 -158 l 1
 401 -195 l 1
 357 -193 316 -192 276 -192 c 0
 252 -192 218 -192 158 -195 c 1
 158 -158 l 1
 165 -158 l 2
 236 -158 241 -152 241 -115 c 2
 241 69 l 2
 241 133 240 181 240 188 c 0
 232 301 191 367 120 367 c 0
 104 367 52 359 47 314 c 0
 44 303 41 298 30 298 c 0
 18 297 14 302 14 312 c 0
 14 356 42 421 105 428 c 0
 192 439 249 372 279 259 c 1
EndSplineSet
Substitution2: "'salt' Stylistic Alternatives lookup 0-1" upsilondieresistonos.alt
EndChar

StartChar: alpha
Encoding: 945 945 123
Width: 558
Flags: MW
HStem: 0 31 401 31
LayerCount: 2
Fore
SplineSet
389 0 m 1
 346 87 l 1
 340 87 l 1
 231 65 144 50 52 -13 c 1
 40 -13 24 -8 20 9 c 1
 92 118 183 183 204 319 c 0
 211 372 154 395 78 395 c 1
 78 432 l 1
 199 430 l 2
 226 430 234 423 250 397 c 2
 438 76 l 2
 461 37 507 36 546 36 c 1
 546 0 l 1
 389 0 l 1
251 263 m 1
 244 263 l 1
 199 196 142 98 142 95 c 0
 142 93 143 95 144 95 c 0
 207 119 295 126 324 126 c 1
 306 163 265 234 251 263 c 1
EndSplineSet
EndChar

StartChar: beta
Encoding: 946 946 124
Width: 480
Flags: MW
HStem: -14 32 417 26
VStem: 72 70 346 77
LayerCount: 2
Fore
SplineSet
222 -14 m 0
 116 -14 73 21 73 52 c 2
 73 375 l 2
 73 396 73 412 22 412 c 2
 5 412 l 1
 4 449 l 1
 54 447 107 448 154 450 c 1
 154 380 l 1
 194 423 235 444 300 444 c 0
 339 444 423 417 423 359 c 0
 423 314 379 256 295 230 c 1
 376 222 452 172 452 118 c 0
 452 53 377 -14 222 -14 c 0
209 217 m 1
 174 235 l 1
 297 254 334 320 334 359 c 0
 334 391 304 411 268 411 c 0
 238 411 192 392 154 339 c 1
 154 47 l 2
 154 34 168 24 225 24 c 0
 269 24 364 26 364 119 c 0
 364 184 272 217 209 217 c 1
EndSplineSet
EndChar

StartChar: gamma
Encoding: 947 947 125
Width: 471
Flags: MW
HStem: 0 23 408 22
VStem: 103 70 393 25
LayerCount: 2
Fore
SplineSet
414 266 m 1
 405 375 390 402 280 402 c 2
 228 402 l 2
 188 402 187 395 187 348 c 2
 187 73 l 2
 187 36 198 29 276 29 c 2
 289 29 l 1
 289 0 l 1
 239 2 194 3 147 3 c 0
 136 3 99 3 23 0 c 1
 23 29 l 1
 35 29 l 2
 97 29 106 35 106 71 c 2
 106 360 l 2
 106 396 96 402 34 402 c 2
 23 402 l 1
 23 430 l 1
 434 430 l 1
 446 266 l 1
 414 266 l 1
EndSplineSet
EndChar

StartChar: delta
Encoding: 948 948 126
Width: 611
Flags: MW
HStem: 0 39 467 23
LayerCount: 2
Fore
SplineSet
7 0 m 1
 7 38 l 1
 31 38 58 40 75 61 c 0
 137 139 154 165 170 191 c 0
 186 217 200 244 254 323 c 1
 190 448 177 461 104 461 c 1
 104 490 l 1
 212 488 l 2
 239 488 247 481 262 455 c 2
 484 76 l 2
 507 37 553 37 591 37 c 1
 591 0 l 1
 7 0 l 1
283 278 m 1
 217 191 149 81 149 60 c 0
 149 45 227 44 280 44 c 0
 328 44 380 53 404 61 c 1
 384 102 315 233 283 278 c 1
EndSplineSet
EndChar

StartChar: epsilon
Encoding: 949 949 127
Width: 484
Flags: MW
HStem: -14 25 427 24
VStem: 102 15 306 26 395 24
LayerCount: 2
Fore
SplineSet
275 -14 m 0
 147 -14 35 87 35 219 c 0
 35 350 146 451 275 451 c 0
 339 451 399 448 447 377 c 1
 447 334 l 2
 447 318 446 313 434 313 c 0
 422 313 419 320 416 329 c 0
 395 392 348 421 275 421 c 0
 245 421 127 405 127 218 c 0
 127 32 252 17 282 17 c 0
 355 17 388 42 422 87 c 0
 432 100 450 94 450 85 c 0
 450 82 448 79 447 76 c 0
 416 21 366 -14 275 -14 c 0
321 139 m 1
 321 195 321 200 261 204 c 2
 105 215 l 1
 105 239 l 1
 261 249 l 2
 321 253 321 257 321 313 c 1
 355 313 l 1
 355 139 l 1
 321 139 l 1
EndSplineSet
EndChar

StartChar: zeta
Encoding: 950 950 128
Width: 444
Flags: MW
HStem: 384 46
VStem: 26 25 88 77 281 56
LayerCount: 2
Fore
SplineSet
178 186 m 0
 178 142 243 134 281 132 c 0
 315 130 360 121 360 77 c 0
 360 13 292 -39 246 -63 c 1
 228 -34 l 1
 258 -19 295 2 295 30 c 0
 295 45 284 54 265 60 c 0
 209 79 90 69 90 146 c 0
 90 254 268 346 332 374 c 1
 332 379 l 1
 154 379 l 1
 117 379 l 2
 81 379 61 358 57 285 c 1
 24 285 l 1
 32 430 l 1
 413 430 l 1
 413 373 l 1
 331 339 178 255 178 186 c 0
EndSplineSet
EndChar

StartChar: eta
Encoding: 951 951 129
Width: 588
Flags: MW
HStem: 0 23 226 22 408 22
VStem: 103 70 380 70
LayerCount: 2
Fore
SplineSet
437 3 m 2
 432 3 l 2
 418 3 383 3 318 0 c 1
 318 29 l 1
 326 29 l 2
 389 29 401 34 401 73 c 0
 401 79 400 85 400 91 c 2
 400 223 l 1
 187 223 l 1
 187 73 l 2
 187 33 197 29 260 29 c 2
 268 29 l 1
 268 0 l 1
 224 2 183 3 142 3 c 2
 138 3 l 2
 123 3 88 3 23 0 c 1
 23 29 l 1
 35 29 l 2
 97 29 106 35 106 71 c 2
 106 360 l 2
 106 396 96 402 34 402 c 2
 23 402 l 1
 23 430 l 1
 66 428 105 428 144 428 c 0
 184 428 225 428 268 430 c 1
 268 402 l 1
 262 402 l 2
 201 402 187 398 187 360 c 2
 187 251 l 1
 400 251 l 1
 400 360 l 2
 400 398 386 402 325 402 c 2
 318 402 l 1
 318 430 l 1
 361 428 399 428 438 428 c 0
 478 428 519 428 563 430 c 1
 563 402 l 1
 552 402 l 2
 489 402 480 395 480 360 c 2
 480 71 l 2
 480 35 489 29 551 29 c 2
 563 29 l 1
 563 0 l 1
 518 2 478 3 437 3 c 2
EndSplineSet
EndChar

StartChar: theta
Encoding: 952 952 130
Width: 530
Flags: MW
HStem: -11 26 218 31 424 23
VStem: 27 84 387 84
LayerCount: 2
Fore
SplineSet
264 -11 m 0
 139 -11 25 83 25 213 c 0
 25 332 123 447 264 447 c 0
 402 447 502 336 502 213 c 0
 502 82 389 -11 264 -11 c 0
264 418 m 0
 216 418 124 396 121 252 c 1
 407 252 l 1
 403 396 311 418 264 418 c 0
407 215 m 1
 121 215 l 1
 121 155 126 86 184 45 c 0
 207 28 236 21 264 21 c 0
 307 21 344 39 369 68 c 0
 401 105 407 157 407 204 c 2
 407 215 l 1
EndSplineSet
EndChar

StartChar: iota
Encoding: 953 953 131
Width: 303
Flags: MW
HStem: 0 23 410 22
VStem: 111 70
LayerCount: 2
Fore
SplineSet
152 3 m 0
 105 3 70 1 32 0 c 1
 32 29 l 1
 43 29 l 2
 106 29 114 35 114 71 c 2
 114 362 l 2
 114 400 102 404 40 404 c 2
 32 404 l 1
 32 432 l 1
 73 430 111 430 151 430 c 0
 192 430 233 430 278 432 c 1
 278 404 l 1
 267 404 l 2
 196 404 195 396 195 343 c 2
 195 91 l 2
 195 38 196 29 267 29 c 2
 278 29 l 1
 278 0 l 1
 233 2 193 3 152 3 c 0
EndSplineSet
EndChar

StartChar: kappa
Encoding: 954 954 132
Width: 588
Flags: MW
HStem: 0 23 408 22
VStem: 103 67
LayerCount: 2
Fore
SplineSet
475 3 m 0
 437 3 400 2 358 0 c 1
 358 28 l 1
 380 30 394 33 394 48 c 0
 394 62 380 81 355 111 c 0
 330 140 295 178 255 231 c 1
 237 218 224 208 213 201 c 0
 207 196 187 183 184 174 c 0
 183 171 183 167 183 164 c 2
 183 96 l 2
 183 80 183 68 184 59 c 0
 186 50 188 44 192 39 c 0
 200 31 218 29 258 29 c 2
 266 29 l 1
 266 0 l 1
 222 2 182 3 142 3 c 0
 119 3 84 3 23 0 c 1
 23 29 l 1
 35 29 l 2
 97 29 106 35 106 71 c 2
 106 360 l 2
 106 396 96 402 34 402 c 2
 23 402 l 1
 23 430 l 1
 67 428 107 428 148 428 c 0
 171 428 206 427 266 430 c 1
 266 402 l 1
 258 402 l 2
 194 402 183 397 183 357 c 2
 183 218 l 1
 269 281 312 312 336 330 c 0
 360 348 363 351 369 358 c 0
 376 367 384 376 384 387 c 0
 384 395 375 400 366 403 c 1
 366 430 l 1
 500 428 l 1
 549 430 l 1
 549 403 l 1
 505 400 467 382 428 356 c 0
 391 332 353 301 312 273 c 1
 362 213 399 167 428 133 c 0
 456 99 476 76 492 60 c 0
 523 30 536 29 573 29 c 1
 573 0 l 1
 539 2 507 3 475 3 c 0
EndSplineSet
EndChar

StartChar: lambda
Encoding: 955 955 133
Width: 503
Flags: MW
HStem: 0 31 468 22
LayerCount: 2
Fore
SplineSet
391 3 m 0
 377 3 363 2 251 0 c 1
 251 37 l 1
 304 37 314 47 314 60 c 0
 314 69 309 82 305 91 c 2
 227 312 l 1
 223 301 219 291 215 280 c 2
 157 108 l 2
 154 99 149 89 149 79 c 0
 149 62 160 40 205 36 c 1
 205 0 l 1
 171 2 140 3 109 3 c 0
 84 3 58 2 31 0 c 1
 31 36 l 1
 79 39 100 57 116 96 c 0
 121 107 125 119 129 132 c 2
 207 357 l 2
 231 426 184 462 112 462 c 2
 104 462 l 1
 104 490 l 1
 225 490 l 2
 253 490 258 483 267 456 c 2
 397 90 l 2
 416 38 420 38 480 36 c 1
 480 0 l 1
 448 2 420 3 391 3 c 0
EndSplineSet
EndChar

StartChar: nu
Encoding: 957 957 134
Width: 585
Flags: MW
HStem: 0 31 401 31
VStem: 101 28 420 28
LayerCount: 2
Fore
SplineSet
480 0 m 0
 466 0 449 11 418 45 c 2
 140 361 l 1
 140 105 l 2
 140 50 172 37 223 36 c 1
 223 0 l 1
 186 2 153 3 120 3 c 0
 88 3 56 2 21 0 c 1
 21 36 l 1
 90 38 104 65 104 106 c 2
 104 390 l 1
 80 395 53 396 28 396 c 2
 21 396 l 1
 21 432 l 1
 146 432 l 2
 172 432 183 422 205 397 c 2
 442 128 l 1
 442 322 l 2
 442 358 438 394 359 396 c 1
 359 432 l 1
 396 430 429 429 462 429 c 0
 494 429 526 430 561 432 c 1
 561 396 l 1
 483 394 478 357 478 325 c 2
 478 105 l 2
 478 50 510 37 561 36 c 1
 561 0 l 1
 525 1 513 0 480 0 c 0
EndSplineSet
EndChar

StartChar: xi
Encoding: 958 958 135
Width: 426
Flags: MW
HStem: 0 51 380 50
VStem: 28 17 218 91 362 17
LayerCount: 2
Fore
SplineSet
381 -74 m 1
 381 -64 l 2
 381 -36 378 -12 373 -7 c 0
 369 -1 357 -1 306 -1 c 2
 225 -1 l 1
 31 -1 l 1
 31 45 l 1
 72 66 121 89 160 111 c 0
 200 134 228 155 228 172 c 0
 228 197 191 209 156 209 c 0
 121 209 101 199 70 186 c 1
 64 195 l 1
 64 219 l 1
 294 375 l 1
 225 375 l 2
 86 375 66 375 61 372 c 0
 54 370 50 323 50 306 c 0
 50 305 50 303 38 303 c 2
 26 303 l 1
 34 431 l 1
 389 431 l 1
 389 402 l 1
 169 252 l 1
 170 251 l 1
 194 257 207 260 231 260 c 0
 274 260 331 248 331 205 c 0
 331 171 294 141 252 117 c 0
 210 94 160 74 127 60 c 1
 127 55 l 1
 398 55 l 1
 405 -74 l 1
 381 -74 l 1
EndSplineSet
Substitution2: "'salt' Stylistic Alternatives lookup 0-1" xi.alt
EndChar

StartChar: omicron
Encoding: 959 959 136
Width: 530
Flags: MW
HStem: -11 25 426 22
VStem: 28 83 388 83
LayerCount: 2
Fore
SplineSet
264 -11 m 0
 138 -11 26 85 26 214 c 0
 26 339 131 448 265 448 c 0
 395 448 502 342 502 214 c 0
 502 87 394 -11 264 -11 c 0
381 358 m 0
 354 399 309 420 264 420 c 0
 223 420 173 400 146 356 c 0
 121 315 121 267 121 222 c 0
 121 177 122 124 147 84 c 0
 175 40 220 20 265 20 c 0
 317 20 362 48 385 91 c 0
 408 134 408 186 408 222 c 0
 408 260 408 316 381 358 c 0
EndSplineSet
EndChar

StartChar: pi
Encoding: 960 960 137
Width: 588
Flags: MW
HStem: 0 23 408 22
VStem: 103 70 380 70
LayerCount: 2
Fore
SplineSet
437 3 m 2
 432 3 l 2
 418 3 383 3 318 0 c 1
 318 29 l 1
 328 29 l 2
 400 29 401 39 401 84 c 0
 401 93 400 101 400 109 c 2
 400 361 l 2
 400 399 395 402 350 402 c 2
 224 402 l 2
 193 402 187 395 187 368 c 2
 187 71 l 2
 187 35 195 29 258 29 c 2
 268 29 l 1
 268 0 l 1
 224 2 183 3 142 3 c 2
 138 3 l 2
 123 3 88 3 23 0 c 1
 23 29 l 1
 35 29 l 2
 97 29 106 35 106 71 c 2
 106 360 l 2
 106 396 96 402 34 402 c 2
 23 402 l 1
 23 430 l 1
 563 430 l 1
 563 402 l 1
 552 402 l 2
 489 402 480 395 480 360 c 2
 480 71 l 2
 480 35 489 29 551 29 c 2
 563 29 l 1
 563 0 l 1
 518 2 478 3 437 3 c 2
EndSplineSet
EndChar

StartChar: rho
Encoding: 961 961 138
Width: 530
Flags: MW
HStem: 0 23 182 23 407 23
VStem: 103 70 381 84
LayerCount: 2
Fore
SplineSet
288 179 m 1
 288 208 l 1
 374 213 401 267 401 303 c 0
 401 341 371 399 276 399 c 2
 214 399 l 2
 192 399 187 397 187 359 c 2
 187 71 l 2
 187 35 195 29 258 29 c 2
 269 29 l 1
 269 0 l 1
 225 2 184 3 143 3 c 0
 96 3 62 1 23 0 c 1
 23 29 l 1
 35 29 l 2
 97 29 106 35 106 71 c 2
 106 359 l 2
 106 395 97 401 35 401 c 2
 23 401 l 1
 23 430 l 1
 300 430 l 2
 416 430 496 373 496 304 c 0
 496 257 452 179 288 179 c 1
EndSplineSet
EndChar

StartChar: sigma1
Encoding: 962 962 139
Width: 484
Flags: MW
HStem: -14 25 427 24
VStem: 36 81 395 24
LayerCount: 2
Fore
SplineSet
275 -14 m 0
 147 -14 35 87 35 219 c 0
 35 350 146 451 275 451 c 0
 339 451 399 448 447 377 c 1
 447 334 l 2
 447 318 446 313 434 313 c 0
 422 313 419 320 416 329 c 0
 395 392 348 421 275 421 c 0
 245 421 127 405 127 218 c 0
 127 32 252 17 282 17 c 0
 355 17 388 42 422 87 c 0
 432 100 450 94 450 85 c 0
 450 82 448 79 447 76 c 0
 416 21 366 -14 275 -14 c 0
EndSplineSet
EndChar

StartChar: sigma
Encoding: 963 963 140
Width: 484
Flags: MW
HStem: -14 25 427 24
VStem: 36 81 395 24
LayerCount: 2
Fore
SplineSet
275 -14 m 0
 147 -14 35 87 35 219 c 0
 35 350 146 451 275 451 c 0
 339 451 399 448 447 377 c 1
 447 334 l 2
 447 318 446 313 434 313 c 0
 422 313 419 320 416 329 c 0
 395 392 348 421 275 421 c 0
 245 421 127 405 127 218 c 0
 127 32 252 17 282 17 c 0
 355 17 388 42 422 87 c 0
 432 100 450 94 450 85 c 0
 450 82 448 79 447 76 c 0
 416 21 366 -14 275 -14 c 0
EndSplineSet
EndChar

StartChar: tau
Encoding: 964 964 141
Width: 530
Flags: MW
HStem: 0 23 408 22
VStem: 25 25 215 70 449 25
LayerCount: 2
Fore
SplineSet
473 265 m 1
 465 367 459 402 356 402 c 2
 347 402 l 2
 307 402 304 399 304 348 c 0
 304 337 305 326 305 316 c 2
 305 76 l 2
 305 37 315 29 405 29 c 2
 422 29 l 1
 422 0 l 1
 365 2 312 3 258 3 c 0
 228 3 199 3 108 0 c 1
 108 29 l 1
 124 29 l 2
 211 29 225 36 225 76 c 2
 225 368 l 2
 225 402 214 402 173 402 c 0
 70 402 64 367 56 265 c 1
 23 265 l 1
 35 430 l 1
 494 430 l 1
 506 265 l 1
 473 265 l 1
EndSplineSet
EndChar

StartChar: upsilon
Encoding: 965 965 142
Width: 568
Flags: MW
HStem: -195 31 247 61
VStem: 16 24 230 67 482 28
LayerCount: 2
Fore
SplineSet
279 258 m 1
 279 260 280 262 280 265 c 0
 296 335 335 425 432 428 c 0
 518 430 544 349 544 307 c 0
 544 282 533 243 480 243 c 0
 449 243 441 261 441 276 c 0
 441 296 456 308 480 309 c 0
 497 310 508 316 508 328 c 0
 508 359 420 388 369 338 c 0
 344 314 328 274 321 223 c 0
 318 196 318 193 318 68 c 2
 318 -115 l 2
 318 -151 321 -158 390 -158 c 2
 401 -158 l 1
 401 -195 l 1
 357 -193 316 -192 276 -192 c 0
 252 -192 218 -192 158 -195 c 1
 158 -158 l 1
 165 -158 l 2
 236 -158 241 -152 241 -115 c 2
 241 68 l 2
 241 133 240 180 240 187 c 0
 232 300 191 366 120 366 c 0
 104 366 52 358 47 313 c 0
 44 302 41 297 30 297 c 0
 18 296 14 301 14 311 c 0
 14 355 42 420 105 427 c 0
 192 437 249 371 279 258 c 1
EndSplineSet
Substitution2: "'salt' Stylistic Alternatives lookup 0-1" upsilon.alt
EndChar

StartChar: phi
Encoding: 966 966 143
Width: 485
Flags: MW
HStem: 0 31 80 23 328 23 399 31
VStem: 27 71 192 70 360 71
LayerCount: 2
Fore
SplineSet
281 352 m 1
 402 338 460 287 460 216 c 0
 460 141 396 91 281 78 c 1
 281 78 l 1
 281 43 288 36 364 36 c 2
 384 36 l 1
 384 0 l 1
 307 3 267 3 250 3 c 2
 246 3 l 2
 197 3 150 2 98 0 c 1
 98 36 l 1
 117 36 l 2
 194 36 200 45 200 78 c 2
 200 79 l 1
 115 87 25 126 25 215 c 0
 25 274 70 338 200 351 c 1
 200 351 l 1
 199 388 189 394 111 394 c 2
 98 394 l 1
 98 430 l 1
 150 428 197 427 246 427 c 0
 272 427 313 427 384 430 c 1
 384 394 l 1
 370 394 l 2
 291 394 281 388 281 352 c 1
281 323 m 1
 281 107 l 1
 327 115 378 132 378 214 c 0
 378 278 355 311 281 323 c 1
200 322 m 1
 128 309 107 273 107 216 c 0
 107 154 128 121 200 108 c 1
 200 322 l 1
EndSplineSet
EndChar

StartChar: chi
Encoding: 967 967 144
Width: 560
Flags: MW
HStem: 0 23 408 22
LayerCount: 2
Fore
SplineSet
309 235 m 1
 449 67 l 2
 473 38 489 29 540 29 c 2
 550 29 l 1
 550 0 l 1
 513 2 479 3 444 3 c 0
 406 3 368 2 326 0 c 1
 326 28 l 1
 354 31 365 42 365 54 c 0
 365 62 354 77 334 100 c 0
 316 122 291 150 265 183 c 1
 225 138 202 112 189 95 c 0
 176 78 173 70 173 59 c 0
 173 44 181 35 195 31 c 0
 199 30 202 29 206 28 c 1
 206 0 l 1
 168 2 135 3 101 3 c 0
 71 3 43 2 10 0 c 1
 10 28 l 1
 65 31 98 49 130 81 c 0
 147 96 163 115 181 137 c 0
 199 159 219 183 244 209 c 1
 115 364 l 2
 91 393 75 402 24 402 c 2
 15 402 l 1
 15 430 l 1
 48 429 77 428 117 428 c 0
 156 428 195 428 237 430 c 1
 237 403 l 1
 210 400 199 387 199 377 c 0
 199 375 199 373 200 371 c 0
 201 369 203 365 209 358 c 0
 219 343 242 316 288 260 c 1
 315 294 335 314 348 331 c 0
 362 347 368 358 368 372 c 0
 368 387 360 396 345 400 c 0
 342 401 339 402 335 403 c 1
 335 430 l 1
 372 428 407 428 441 428 c 0
 471 428 499 428 531 430 c 1
 531 403 l 1
 477 400 444 382 412 352 c 0
 397 338 382 320 365 300 c 0
 348 280 330 258 309 235 c 1
EndSplineSet
EndChar

StartChar: psi
Encoding: 968 968 145
Width: 618
Flags: MW
HStem: 0 31 399 31
VStem: 253 70
LayerCount: 2
Fore
SplineSet
579 305 m 0
 574 302 567 299 560 294 c 0
 520 272 519 260 502 222 c 0
 496 209 489 196 477 182 c 0
 448 145 409 119 346 109 c 1
 346 78 l 2
 346 43 353 36 428 36 c 2
 448 36 l 1
 448 0 l 1
 372 3 332 3 315 3 c 2
 311 3 l 2
 262 3 214 2 162 0 c 1
 162 36 l 1
 181 36 l 2
 259 36 265 45 265 78 c 2
 265 109 l 1
 201 119 163 145 133 182 c 0
 122 196 115 209 109 222 c 0
 92 260 91 272 51 294 c 0
 44 299 37 302 32 305 c 0
 26 309 22 313 22 317 c 0
 22 328 37 330 53 330 c 2
 68 330 l 2
 106 330 145 296 164 259 c 0
 169 250 173 240 177 229 c 0
 195 187 217 158 265 141 c 1
 265 351 l 2
 265 388 254 394 176 394 c 2
 162 394 l 1
 162 430 l 1
 214 428 262 427 311 427 c 0
 337 427 377 427 448 430 c 1
 448 394 l 1
 435 394 l 2
 355 394 346 388 346 351 c 2
 346 141 l 1
 394 158 416 187 433 229 c 0
 438 240 442 250 447 259 c 0
 466 296 505 330 543 330 c 2
 558 330 l 2
 573 330 588 328 588 317 c 0
 588 313 585 309 579 305 c 0
EndSplineSet
EndChar

StartChar: omega
Encoding: 969 969 146
Width: 826
Flags: MW
HStem: -11 26 310 23 409 23
VStem: 33 84 355 67 660 84
LayerCount: 2
Fore
SplineSet
412 79 m 1
 367 1 286 -11 247 -11 c 0
 129 -11 32 82 32 210 c 0
 32 348 146 432 259 432 c 0
 265 432 279 428 279 417 c 0
 279 407 269 403 261 403 c 0
 208 403 127 369 127 211 c 0
 127 91 179 21 253 21 c 0
 312 21 373 57 373 94 c 2
 373 264 l 2
 373 304 359 305 318 306 c 1
 318 334 l 1
 340 333 369 331 417 331 c 0
 445 331 473 332 505 335 c 1
 505 306 l 1
 494 306 472 306 462 300 c 0
 455 295 450 286 450 264 c 2
 450 94 l 2
 450 77 452 74 466 61 c 0
 494 33 534 21 570 21 c 0
 620 21 696 56 696 211 c 0
 696 370 616 403 563 403 c 0
 555 403 545 407 545 417 c 0
 545 428 558 432 565 432 c 0
 676 432 792 350 792 210 c 0
 792 92 704 -11 577 -11 c 0
 538 -11 457 1 412 79 c 1
EndSplineSet
EndChar

StartChar: iotadieresis
Encoding: 970 970 147
Width: 303
Flags: MW
HStem: 0 23 410 22 518 95
VStem: 6 97 111 70 184 97
LayerCount: 2
Fore
SplineSet
246 513 m 0
 215 513 192 537 192 563 c 0
 192 587 212 613 247 613 c 0
 277 613 301 589 301 563 c 0
 301 539 281 513 246 513 c 0
57 513 m 0
 27 513 3 537 3 563 c 0
 3 587 23 613 58 613 c 0
 89 613 112 589 112 563 c 0
 112 539 92 513 57 513 c 0
152 3 m 0
 105 3 70 1 32 0 c 1
 32 29 l 1
 43 29 l 2
 106 29 114 35 114 71 c 2
 114 363 l 2
 114 401 102 406 40 406 c 2
 32 406 l 1
 32 434 l 1
 73 432 111 432 151 432 c 0
 192 432 233 432 278 434 c 1
 278 406 l 1
 267 406 l 2
 196 406 195 398 195 345 c 2
 195 91 l 2
 195 38 196 29 267 29 c 2
 278 29 l 1
 278 0 l 1
 233 2 193 3 152 3 c 0
EndSplineSet
EndChar

StartChar: upsilondieresis
Encoding: 971 971 148
Width: 568
Flags: MW
HStem: -195 31 247 61 518 95
VStem: 16 24 127 97 230 67 305 97 482 28
LayerCount: 2
Fore
SplineSet
374 513 m 0
 344 513 320 537 320 563 c 0
 320 587 340 613 375 613 c 0
 406 613 429 589 429 563 c 0
 429 539 409 513 374 513 c 0
185 513 m 0
 155 513 131 537 131 563 c 0
 131 587 152 613 187 613 c 0
 217 613 241 589 241 563 c 0
 241 539 220 513 185 513 c 0
279 259 m 1
 279 261 280 263 280 266 c 0
 296 337 335 427 432 429 c 0
 518 432 544 350 544 308 c 0
 544 283 533 244 480 244 c 0
 449 244 441 262 441 277 c 0
 441 297 456 309 480 310 c 0
 497 311 508 317 508 329 c 0
 508 360 420 389 369 339 c 0
 344 315 328 275 321 224 c 0
 318 197 318 194 318 69 c 2
 318 -115 l 2
 318 -151 321 -158 390 -158 c 2
 401 -158 l 1
 401 -195 l 1
 357 -193 316 -192 276 -192 c 0
 252 -192 218 -192 158 -195 c 1
 158 -158 l 1
 165 -158 l 2
 236 -158 241 -152 241 -115 c 2
 241 69 l 2
 241 133 240 181 240 188 c 0
 232 301 191 367 120 367 c 0
 104 367 52 359 47 314 c 0
 44 303 41 298 30 298 c 0
 18 297 14 302 14 312 c 0
 14 356 42 421 105 428 c 0
 192 439 249 372 279 259 c 1
EndSplineSet
Substitution2: "'salt' Stylistic Alternatives lookup 0-1" upsilondieresis.alt
EndChar

StartChar: omicrontonos
Encoding: 972 972 149
Width: 530
Flags: MW
HStem: -11 25 426 22
VStem: 28 83 388 83
LayerCount: 2
Fore
SplineSet
264 -11 m 0
 138 -11 26 85 26 214 c 0
 26 339 131 448 265 448 c 0
 395 448 502 342 502 214 c 0
 502 87 394 -11 264 -11 c 0
381 358 m 0
 354 399 309 420 264 420 c 0
 223 420 173 400 146 356 c 0
 121 315 121 267 121 222 c 0
 121 177 122 124 147 84 c 0
 175 40 220 20 265 20 c 0
 317 20 362 48 385 91 c 0
 408 134 408 186 408 222 c 0
 408 260 408 316 381 358 c 0
EndSplineSet
EndChar

StartChar: upsilontonos
Encoding: 973 973 150
Width: 568
Flags: MW
HStem: 0 20 295 53
VStem: 35 20 220 58 438 24
LayerCount: 2
Fore
SplineSet
279 258 m 1
 279 260 280 262 280 265 c 0
 296 335 335 425 432 428 c 0
 518 430 544 349 544 307 c 0
 544 282 533 243 480 243 c 0
 449 243 441 261 441 276 c 0
 441 296 456 308 480 309 c 0
 497 310 508 316 508 328 c 0
 508 359 420 388 369 338 c 0
 344 314 328 274 321 223 c 0
 318 196 318 193 318 68 c 2
 318 -115 l 2
 318 -151 321 -158 390 -158 c 2
 401 -158 l 1
 401 -195 l 1
 357 -193 316 -192 276 -192 c 0
 252 -192 218 -192 158 -195 c 1
 158 -158 l 1
 165 -158 l 2
 236 -158 241 -152 241 -115 c 2
 241 68 l 2
 241 133 240 180 240 187 c 0
 232 300 191 366 120 366 c 0
 104 366 52 358 47 313 c 0
 44 302 41 297 30 297 c 0
 18 296 14 301 14 311 c 0
 14 355 42 420 105 427 c 0
 192 437 249 371 279 258 c 1
EndSplineSet
Substitution2: "'salt' Stylistic Alternatives lookup 0-1" upsilontonos.alt
EndChar

StartChar: omegatonos
Encoding: 974 974 151
Width: 826
Flags: MW
HStem: -11 26 409 23
VStem: 33 84 355 67 660 84
LayerCount: 2
Fore
SplineSet
412 79 m 1
 367 1 286 -11 247 -11 c 0
 129 -11 32 82 32 210 c 0
 32 348 146 432 259 432 c 0
 265 432 279 428 279 417 c 0
 279 407 269 403 261 403 c 0
 208 403 127 369 127 211 c 0
 127 91 179 21 253 21 c 0
 312 21 373 57 373 94 c 2
 373 264 l 2
 373 304 359 305 318 306 c 1
 318 334 l 1
 340 333 369 331 417 331 c 0
 445 331 473 332 505 335 c 1
 505 306 l 1
 494 306 472 306 462 300 c 0
 455 295 450 286 450 264 c 2
 450 94 l 2
 450 77 452 74 466 61 c 0
 494 33 534 21 570 21 c 0
 620 21 696 56 696 211 c 0
 696 370 616 403 563 403 c 0
 555 403 545 407 545 417 c 0
 545 428 558 432 565 432 c 0
 676 432 792 350 792 210 c 0
 792 92 704 -11 577 -11 c 0
 538 -11 457 1 412 79 c 1
EndSplineSet
EndChar

StartChar: periodcentered
Encoding: 183 183 152
Width: 295
Flags: MW
HStem: 323 107<130.5 162.5>
VStem: 85 107
LayerCount: 2
Fore
SplineSet
145 323 m 0
 114 323 87 347 87 375 c 0
 87 406 114 430 147 430 c 0
 180 430 207 406 207 377 c 0
 207 347 180 323 145 323 c 0
EndSplineSet
EndChar

StartChar: upsilondieresistonos.alt
Encoding: 1114113 -1 153
Width: 560
Flags: MW
HStem: -195 31 408 22 518 95
VStem: 127 97 230 67 305 97
LayerCount: 2
Fore
SplineSet
374 513 m 0
 344 513 320 537 320 563 c 0
 320 587 340 613 375 613 c 0
 406 613 429 589 429 563 c 0
 429 539 409 513 374 513 c 0
185 513 m 0
 155 513 131 537 131 563 c 0
 131 587 152 613 187 613 c 0
 217 613 241 589 241 563 c 0
 241 539 220 513 185 513 c 0
479 370 m 0
 463 349 453 322 443 298 c 2
 325 16 l 2
 319 2 318 -2 318 -14 c 2
 318 -115 l 2
 318 -151 321 -158 390 -158 c 2
 401 -158 l 1
 401 -195 l 1
 357 -193 316 -192 276 -192 c 0
 252 -192 218 -192 158 -195 c 1
 158 -158 l 1
 165 -158 l 2
 236 -158 241 -152 241 -115 c 2
 241 -14 l 2
 241 -2 240 2 233 16 c 2
 90 360 l 2
 72 403 57 404 5 404 c 1
 5 432 l 1
 43 429 76 429 110 429 c 0
 149 429 188 429 230 432 c 1
 230 404 l 1
 210 404 170 404 170 377 c 0
 170 373 171 369 172 365 c 0
 176 351 283 98 303 50 c 1
 308 62 313 73 317 84 c 2
 415 318 l 2
 420 331 427 345 427 360 c 0
 427 386 409 401 376 404 c 1
 376 432 l 1
 410 429 441 429 472 429 c 0
 498 429 525 429 553 432 c 1
 553 404 l 1
 515 401 494 388 479 370 c 0
EndSplineSet
EndChar

StartChar: upsilondieresis.alt
Encoding: 1114114 -1 154
Width: 560
Flags: MW
HStem: -195 31 408 22 518 95
VStem: 127 97 230 67 305 97
LayerCount: 2
Fore
SplineSet
374 513 m 0
 344 513 320 537 320 563 c 0
 320 587 340 613 375 613 c 0
 406 613 429 589 429 563 c 0
 429 539 409 513 374 513 c 0
185 513 m 0
 155 513 131 537 131 563 c 0
 131 587 152 613 187 613 c 0
 217 613 241 589 241 563 c 0
 241 539 220 513 185 513 c 0
479 370 m 0
 463 349 453 322 443 298 c 2
 325 16 l 2
 319 2 318 -2 318 -14 c 2
 318 -115 l 2
 318 -151 321 -158 390 -158 c 2
 401 -158 l 1
 401 -195 l 1
 357 -193 316 -192 276 -192 c 0
 252 -192 218 -192 158 -195 c 1
 158 -158 l 1
 165 -158 l 2
 236 -158 241 -152 241 -115 c 2
 241 -14 l 2
 241 -2 240 2 233 16 c 2
 90 360 l 2
 72 403 57 404 5 404 c 1
 5 432 l 1
 43 429 76 429 110 429 c 0
 149 429 188 429 230 432 c 1
 230 404 l 1
 210 404 170 404 170 377 c 0
 170 373 171 369 172 365 c 0
 176 351 283 98 303 50 c 1
 308 62 313 73 317 84 c 2
 415 318 l 2
 420 331 427 345 427 360 c 0
 427 386 409 401 376 404 c 1
 376 432 l 1
 410 429 441 429 472 429 c 0
 498 429 525 429 553 432 c 1
 553 404 l 1
 515 401 494 388 479 370 c 0
EndSplineSet
EndChar

StartChar: upsilontonos.alt
Encoding: 1114115 -1 155
Width: 560
Flags: MW
HStem: -195 31 408 22
VStem: 230 67
LayerCount: 2
Fore
SplineSet
479 368 m 0
 463 348 453 321 443 297 c 2
 325 16 l 2
 319 1 318 -2 318 -15 c 2
 318 -115 l 2
 318 -151 321 -158 390 -158 c 2
 401 -158 l 1
 401 -195 l 1
 357 -193 316 -192 276 -192 c 0
 252 -192 218 -192 158 -195 c 1
 158 -158 l 1
 165 -158 l 2
 236 -158 241 -152 241 -115 c 2
 241 -15 l 2
 241 -2 240 1 233 16 c 2
 90 359 l 2
 72 402 57 402 5 402 c 1
 5 430 l 1
 43 428 76 428 110 428 c 0
 149 428 188 428 230 430 c 1
 230 402 l 1
 210 402 170 403 170 376 c 0
 170 371 171 367 172 363 c 0
 176 350 283 97 303 50 c 1
 308 61 313 73 317 83 c 2
 415 317 l 2
 420 330 427 344 427 359 c 0
 427 384 409 399 376 403 c 1
 376 430 l 1
 410 428 441 428 472 428 c 0
 498 428 525 428 553 430 c 1
 553 402 l 1
 515 400 494 387 479 368 c 0
EndSplineSet
EndChar

StartChar: upsilon.alt
Encoding: 1114116 -1 156
Width: 560
Flags: MW
HStem: -195 31 408 22
VStem: 230 67
LayerCount: 2
Fore
SplineSet
479 368 m 0
 463 348 453 321 443 297 c 2
 325 16 l 2
 319 1 318 -2 318 -15 c 2
 318 -115 l 2
 318 -151 321 -158 390 -158 c 2
 401 -158 l 1
 401 -195 l 1
 357 -193 316 -192 276 -192 c 0
 252 -192 218 -192 158 -195 c 1
 158 -158 l 1
 165 -158 l 2
 236 -158 241 -152 241 -115 c 2
 241 -15 l 2
 241 -2 240 1 233 16 c 2
 90 359 l 2
 72 402 57 402 5 402 c 1
 5 430 l 1
 43 428 76 428 110 428 c 0
 149 428 188 428 230 430 c 1
 230 402 l 1
 210 402 170 403 170 376 c 0
 170 371 171 367 172 363 c 0
 176 350 283 97 303 50 c 1
 308 61 313 73 317 83 c 2
 415 317 l 2
 420 330 427 344 427 359 c 0
 427 384 409 399 376 403 c 1
 376 430 l 1
 410 428 441 428 472 428 c 0
 498 428 525 428 553 430 c 1
 553 402 l 1
 515 400 494 387 479 368 c 0
EndSplineSet
EndChar

StartChar: ampersand.alt
Encoding: 1114117 -1 157
Width: 933
Flags: MW
HStem: -8 25 388 45 674 31
VStem: 56 103 469 83 819 26
LayerCount: 2
Fore
SplineSet
875 374 m 1
 848 383 842 385 812 385 c 0
 678 385 588 281 588 168 c 0
 588 67 659 23 713 23 c 0
 755 23 790 44 832 117 c 1
 857 102 873 82 878 56 c 1
 805 -5 723 -8 688 -8 c 0
 650 -8 616 -1 587 11 c 1
 546 -10 495 -22 428 -22 c 0
 229 -22 56 135 56 342 c 0
 56 546 228 704 428 705 c 0
 529 705 711 680 711 537 c 0
 711 501 695 472 668 452 c 1
 668 435 l 1
 807 435 l 2
 815 435 854 437 866 473 c 1
 899 470 l 1
 875 374 l 1
440 668 m 0
 384 668 219 642 180 435 c 1
 498 435 l 2
 573 435 643 458 643 512 c 0
 643 578 585 669 440 668 c 0
652 385 m 1
 174 385 l 1
 173 371 172 356 172 341 c 0
 172 48 377 15 441 15 c 0
 484 15 519 22 549 34 c 1
 514 62 494 102 494 152 c 0
 494 237 523 292 593 342 c 0
 612 355 631 367 652 379 c 1
 652 385 l 1
EndSplineSet
EndChar

StartChar: uni037E
Encoding: 894 894 158
Width: 295
Flags: MW
HStem: 0 21G
LayerCount: 2
Fore
SplineSet
147 318 m 0
 113 318 88 343 88 374 c 0
 88 407 116 430 147 430 c 0
 180 430 207 405 207 375 c 0
 207 327 159 318 147 318 c 0
178 9 m 1
 169 1 158 -2 147 -2 c 0
 97 -2 87 42 87 54 c 0
 87 84 110 109 146 109 c 0
 199 109 209 60 209 3 c 0
 209 -74 174 -144 135 -183 c 0
 127 -191 122 -194 119 -194 c 0
 114 -194 112 -192 108 -189 c 0
 98 -180 102 -176 114 -162 c 0
 153 -119 176 -61 179 -5 c 0
 179 0 179 4 179 7 c 2
 178 9 l 1
EndSplineSet
EndChar

StartChar: uni0375
Encoding: 885 885 159
Width: 206
Flags: MW
HStem: -214 218
VStem: 22 147
LayerCount: 2
Fore
SplineSet
101 -197 m 0
 99 -202 90 -210 84 -214 c 0
 78 -216 76 -216 66 -216 c 0
 40 -216 20 -201 20 -177 c 0
 20 -168 22 -161 33 -148 c 0
 43 -135 61 -115 95 -76 c 2
 166 5 l 1
 173 0 177 -1 178 -2 c 0
 181 -3 182 -5 182 -8 c 0
 182 -9 103 -193 101 -197 c 0
EndSplineSet
EndChar

StartChar: uni0374
Encoding: 884 884 160
Width: 206
Flags: MW
HStem: 680 20G<142 164.5>
LayerCount: 2
Fore
SplineSet
119 682 m 0
 123 688 132 700 152 700 c 0
 177 700 199 684 199 660 c 0
 199 652 199 650 197 644 c 0
 172 611 56 480 53 480 c 0
 47 481 37 488 37 491 c 0
 38 496 113 671 119 682 c 0
EndSplineSet
EndChar

StartChar: xi.alt
Encoding: 1114118 -1 161
Width: 426
Flags: MW
HStem: 0 51 276 56 380 51
VStem: 28 16 91 19 249 78 362 17
LayerCount: 2
Fore
SplineSet
225 375 m 2
 86 375 66 375 61 372 c 0
 54 370 50 323 50 306 c 0
 50 305 50 303 38 303 c 2
 26 303 l 1
 34 431 l 1
 389 431 l 1
 389 375 l 1
 225 375 l 2
381 -74 m 1
 381 -64 l 2
 381 -36 377 -12 373 -7 c 0
 371 -4 367 -3 356 -2 c 0
 346 -1 331 -1 306 -1 c 2
 225 -1 l 1
 31 -1 l 1
 31 45 l 1
 112 87 261 176 261 232 c 0
 261 258 236 272 213 272 c 0
 170 272 137 237 118 208 c 1
 93 215 l 1
 99 248 l 1
 115 294 169 333 238 333 c 0
 293 333 350 306 350 253 c 0
 350 177 183 84 127 60 c 1
 127 55 l 1
 398 55 l 1
 405 -74 l 1
 381 -74 l 1
EndSplineSet
EndChar

StartChar: Xi.alt
Encoding: 1114119 -1 162
Width: 675
Flags: MW
HStem: 0 57 446 74 606 71
VStem: 47 26 155 22 414 94 568 26
LayerCount: 2
Fore
SplineSet
353 601 m 2
 136 601 103 599 95 595 c 0
 85 592 81 546 81 520 c 0
 81 518 80 515 64 515 c 2
 46 515 l 1
 55 677 l 1
 609 677 l 1
 609 601 l 1
 353 601 l 2
599 -97 m 1
 599 -83 l 2
 599 -39 596 -19 588 -11 c 0
 584 -6 577 -3 561 -2 c 0
 545 -1 520 -1 481 -1 c 2
 353 -1 l 1
 50 -1 l 1
 50 61 l 1
 179 113 436 262 436 366 c 0
 436 408 394 442 330 442 c 0
 270 442 226 410 190 322 c 1
 161 329 l 1
 161 366 l 1
 211 494 289 521 369 521 c 0
 453 521 542 477 542 391 c 0
 542 268 296 137 198 86 c 1
 198 76 l 1
 304 76 624 73 624 72 c 2
 633 -97 l 1
 599 -97 l 1
EndSplineSet
EndChar

StartChar: uni03BC
Encoding: 956 956 163
Width: 794
Flags: MW
HStem: -8 54 407 23
VStem: 189 62 496 63
LayerCount: 2
Fore
SplineSet
745 21 m 0
 726 4 707 -4 679 -4 c 0
 604 -4 553 59 533 117 c 1
 529 118 l 1
 502 46 469 -8 384 -8 c 0
 306 -8 257 53 230 109 c 1
 219 109 l 1
 197 54 156 -6 79 -6 c 0
 60 -6 40 -2 24 7 c 1
 24 35 l 1
 32 35 36 34 40 34 c 0
 180 33 197 164 197 268 c 0
 197 334 192 365 180 381 c 0
 170 394 154 397 139 399 c 0
 132 400 125 401 114 402 c 1
 114 430 l 1
 168 428 252 427 274 428 c 1
 270 400 269 381 269 348 c 0
 269 198 270 51 400 51 c 0
 485 51 523 186 523 298 c 0
 523 347 515 411 513 428 c 1
 552 428 624 428 676 429 c 1
 677 400 l 1
 661 399 649 399 639 397 c 0
 629 395 622 392 615 387 c 0
 603 375 596 350 596 296 c 0
 596 186 620 44 697 44 c 0
 718 44 729 49 751 65 c 1
 763 37 l 1
 756 30 751 25 745 21 c 0
EndSplineSet
EndChar

StartChar: uni03A9
Encoding: 937 937 164
Width: 1060
Flags: MW
HStem: -22 27 525 30 680 25
VStem: 55 103 457 84 840 104
LayerCount: 2
Fore
SplineSet
736 -22 m 0
 614 -22 557 39 529 82 c 1
 472 -13 365 -22 323 -22 c 0
 168 -22 55 142 55 341 c 0
 55 546 181 705 334 705 c 0
 340 705 354 701 354 690 c 0
 354 680 346 674 337 674 c 0
 272 674 171 605 171 345 c 0
 171 137 237 11 332 11 c 0
 357 11 476 30 481 79 c 0
 481 83 481 87 481 90 c 2
 481 488 l 2
 481 510 476 518 454 520 c 0
 447 520 439 520 427 521 c 1
 427 556 l 1
 461 554 491 554 522 554 c 0
 547 554 593 553 632 557 c 1
 632 521 l 1
 621 520 599 521 589 516 c 0
 581 512 577 505 577 488 c 2
 577 90 l 2
 577 71 577 68 596 53 c 0
 634 21 687 11 727 11 c 2
 728 11 l 2
 822 11 887 139 887 345 c 0
 887 607 787 674 722 674 c 0
 713 674 705 680 705 690 c 0
 705 701 718 705 725 705 c 0
 808 705 881 659 932 585 c 0
 982 513 1004 426 1004 341 c 0
 1004 143 890 -22 736 -22 c 0
EndSplineSet
EndChar

StartChar: uni0394
Encoding: 916 916 165
Width: 795
Flags: MW
HStem: 0 32 649 34
LayerCount: 2
Fore
SplineSet
16 0 m 1
 16 38 l 1
 39 38 66 40 83 61 c 0
 207 217 263 318 373 479 c 1
 350 525 335 547 333 550 c 0
 291 610 230 643 166 643 c 1
 166 683 l 1
 231 680 302 679 383 683 c 1
 679 62 l 2
 689 42 702 38 758 38 c 2
 778 38 l 1
 778 0 l 1
 16 0 l 1
401 423 m 1
 306 297 187 97 187 67 c 0
 187 49 308 44 389 44 c 0
 460 44 535 56 568 67 c 1
 540 127 439 342 401 423 c 1
EndSplineSet
EndChar

